<?xml version="1.0" encoding="utf-8"?>
<!-- Generator: Adobe Illustrator 17.1.0, SVG Export Plug-In . SVG Version: 6.00 Build 0)  -->
<!DOCTYPE svg PUBLIC "-//W3C//DTD SVG 1.1//EN" "http://www.w3.org/Graphics/SVG/1.1/DTD/svg11.dtd">
<svg version="1.1" id="Layer_1" xmlns="http://www.w3.org/2000/svg" xmlns:xlink="http://www.w3.org/1999/xlink" x="0px" y="0px"
	 viewBox="0 0 17 17" enable-background="new 0 0 17 17" xml:space="preserve">
<g>
	<path fill="#BBA385" d="M6.9,8.6c0-0.4,0.1-0.7,0.3-0.9C7.5,7.2,8,7,8.5,7c0.5,0,1,0.3,1.3,0.7c0.2,0.3,0.3,0.6,0.3,0.9
		c0,0.9-0.7,1.6-1.6,1.6C7.6,10.2,6.9,9.5,6.9,8.6z"/>
	<polygon fill="#BBA385" points="10.5,6.6 10.5,5 12.1,5 12.1,6.6 	"/>
	<path fill="#BBA385" d="M10.8,7.7h1.4v3.8c0,0.5-0.4,0.9-0.9,0.9H5.7c-0.5,0-0.9-0.4-0.9-0.9V7.7h1.4C6,7.9,6,8.3,6,8.6
		c0,1.4,1.1,2.5,2.5,2.5c1.4,0,2.5-1.1,2.5-2.5C11,8.3,11,7.9,10.8,7.7z"/>
	<path fill="#BBA385" d="M13.3,0.4H3.8C1.9,0.4,0.3,2,0.3,3.8v9.5c0,1.9,1.5,3.4,3.4,3.4h9.5c1.9,0,3.4-1.5,3.4-3.4V3.8
		C16.7,2,15.1,0.4,13.3,0.4z M13.1,11.5c0,1-0.8,1.8-1.8,1.8H5.7c-1,0-1.8-0.8-1.8-1.8V5.8c0-1,0.8-1.8,1.8-1.8h5.7
		c1,0,1.8,0.8,1.8,1.8V11.5z"/>
</g>
</svg>
