<?xml version="1.0" encoding="utf-8"?>
<!-- Generator: Adobe Illustrator 17.1.0, SVG Export Plug-In. SVG Version: 6.00 Build 0)  -->
<!DOCTYPE svg PUBLIC "-//W3C//DTD SVG 1.1//EN" "http://www.w3.org/Graphics/SVG/1.1/DTD/svg11.dtd">
<svg version="1.1" id="Layer_1" xmlns="http://www.w3.org/2000/svg" xmlns:xlink="http://www.w3.org/1999/xlink" x="0px" y="0px"
	 viewBox="0 0 17 17" enable-background="new 0 0 17 17" xml:space="preserve">
<path fill="#BBA385" d="M13.3,0.3H3.8c-1.9,0-3.4,1.5-3.4,3.4v9.5c0,1.9,1.5,3.4,3.4,3.4h9.5c1.9,0,3.4-1.5,3.4-3.4V3.7
	C16.7,1.9,15.1,0.3,13.3,0.3z M7.2,13.5c0,0,0-2.6,0-4.7H6.3V7.1h0.9V6c0-0.8,0.4-2,2-2h1.5v1.6c0,0-0.9,0-1.1,0
	c-0.2,0-0.4,0.1-0.4,0.4v1h1.5l-0.2,1.7H9.2c0,2.1,0,4.7,0,4.7H7.2z"/>
</svg>
