<?xml version="1.0" encoding="utf-8"?>
<!-- Generator: Adobe Illustrator 17.1.0, SVG Export Plug-In . SVG Version: 6.00 Build 0)  -->
<!DOCTYPE svg PUBLIC "-//W3C//DTD SVG 1.1//EN" "http://www.w3.org/Graphics/SVG/1.1/DTD/svg11.dtd">
<svg version="1.1" id="Layer_1" xmlns="http://www.w3.org/2000/svg" xmlns:xlink="http://www.w3.org/1999/xlink" x="0px" y="0px"
	 viewBox="0 0 17 17" enable-background="new 0 0 17 17" xml:space="preserve">
<path fill="#BBA385" d="M13.3,0.5H3.8C1.9,0.5,0.3,2,0.3,3.9v9.5c0,1.9,1.5,3.4,3.4,3.4h9.5c1.9,0,3.4-1.5,3.4-3.4V3.9
	C16.7,2,15.1,0.5,13.3,0.5z M12.4,5.2c0.1,0,0.1,0,0.2,0.1c0.1,0.1,0.1,0.1,0.1,0.2v0.8c0,0,0,0.1-0.1,0.1c0,0,0,0-0.1,0
	c0,0,0,0,0,0L8.6,8.8c0,0,0,0-0.1,0l0,0L4.5,6.5c0,0,0,0,0-0.1V5.5c0-0.1,0-0.2,0.1-0.2c0.1,0,0.1-0.1,0.2-0.1H12.4z M12.6,11.1
	C12.6,11.1,12.6,11.1,12.6,11.1l-2.3-2.4c0,0,0,0,0-0.1c0,0,0-0.1,0-0.1l2.2-1.3h0.1c0,0,0.1,0.1,0.1,0.1L12.6,11.1
	C12.7,11,12.7,11,12.6,11.1L12.6,11.1z M4.5,10.9C4.4,10.9,4.4,10.9,4.5,10.9l0-3.6c0,0,0-0.1,0-0.1c0,0,0.1,0,0.1,0l2.3,1.3
	c0,0,0,0,0,0.1c0,0,0,0,0,0L4.5,10.9C4.5,10.9,4.5,10.9,4.5,10.9L4.5,10.9z M4.7,12c0,0-0.1,0-0.1,0c0,0,0,0,0-0.1c0,0,0-0.1,0-0.1
	l3-2.8c0,0,0.1,0,0.1,0l0.8,0.4c0.1,0.1,0.2,0.1,0.3,0L9.6,9c0,0,0.1,0,0.1,0l2.7,2.9c0,0,0,0,0,0.1c0,0,0,0-0.1,0H4.7z"/>
</svg>
