<?xml version="1.0" encoding="utf-8"?>
<!-- Generator: Adobe Illustrator 17.1.0, SVG Export Plug-In . SVG Version: 6.00 Build 0)  -->
<!DOCTYPE svg PUBLIC "-//W3C//DTD SVG 1.1//EN" "http://www.w3.org/Graphics/SVG/1.1/DTD/svg11.dtd">
<svg version="1.1" id="Layer_1" xmlns="http://www.w3.org/2000/svg" xmlns:xlink="http://www.w3.org/1999/xlink" x="0px" y="0px"
	 viewBox="0 0 1130 720" enable-background="new 0 0 1130 720" xml:space="preserve">
<g>
	<path fill="#FFFFFF" d="M603.9,616.9h-7c3.4-6.1,2.5-13.9-2.7-19c-6.2-6.3-16.3-6.3-22.6,0c-0.3,0.3-0.5,0.5-0.7,0.8l0,0l-6,6l-6-6
		l0,0c-0.2-0.3-0.5-0.5-0.7-0.8c-6.2-6.3-16.3-6.3-22.6,0c-5.1,5.2-6,13-2.7,19h-7c-2.9-7.9-1.2-17.2,5.2-23.6
		c8.7-8.8,22.9-8.8,31.6,0c0.3,0.3,0.5,0.5,0.7,0.8c0.5,0.6,1.1,1.2,1.5,1.9c0.5-0.7,1-1.3,1.5-1.9c0.2-0.3,0.5-0.5,0.7-0.8
		c8.7-8.8,22.9-8.8,31.6,0C605.1,599.7,606.8,609,603.9,616.9z"/>
	<path fill="#FFFFFF" d="M1117.8,67.1v291c-0.6-23.3-1-46.6-1.4-70c-0.4-24.2-0.7-48.4-1-72.5l-0.6-72.5l-0.3-69.3
		c-8.1-0.4-16.1-2.1-23.6-5.2c-8.5-3.5-16.4-8.7-22.9-15.3c-6.5-6.5-11.7-14.4-15.3-22.9c-3.1-7.5-4.9-15.5-5.2-23.6
		c-1.9,0-3.9,0-5.8,0H91.1v0c-2.8,0-5.7,0-8.5,0c-0.4,8.1-2.1,16.1-5.2,23.6c-3.5,8.5-8.7,16.4-15.3,22.9
		C55.5,59.8,47.7,65,39.1,68.5c-7.5,3.1-15.6,4.9-23.6,5.2L15.2,143l-0.6,72.5c-0.3,24.2-0.5,48.4-1,72.5
		c-0.4,24.2-0.8,48.4-1.4,72.5c-0.1-2.9-0.1-5.8-0.2-8.6V67.1h0.2c8.3,0,16.7-1.7,24.4-4.9c7.7-3.2,14.7-7.9,20.6-13.8
		C63,42.5,67.8,35.4,71,27.7s4.9-16,4.9-24.4l0-3.4h978.3l0,3.4c0,8.3,1.7,16.7,4.9,24.4c3.2,7.7,7.9,14.7,13.8,20.6
		c5.9,5.9,12.9,10.6,20.6,13.8C1101.2,65.4,1109.5,67.1,1117.8,67.1z"/>
	<path fill="#FFE4C7" d="M1121.2,67.1l0,3.4l-0.3,72.5l-0.6,72.5c-0.3,24.2-0.5,48.4-1,72.5c-0.4,24.2-0.8,48.4-1.4,72.5
		c0-0.9,0-1.7-0.1-2.6c-0.6-23.3-1-46.6-1.4-70c-0.4-24.2-0.7-48.4-1-72.5l-0.6-72.5l-0.3-69.3c-8.1-0.4-16.1-2.1-23.6-5.2
		c-8.5-3.5-16.4-8.7-22.9-15.3c-6.5-6.5-11.7-14.4-15.3-22.9c-3.1-7.5-4.9-15.5-5.2-23.6c-1.9,0-3.9,0-5.8,0H91.1v0
		c-2.8,0-5.7,0-8.5,0c-0.4,8.1-2.1,16.1-5.2,23.6c-3.5,8.5-8.7,16.4-15.3,22.9C55.5,59.8,47.7,65,39.1,68.5
		c-7.5,3.1-15.6,4.9-23.6,5.2L15.2,143l-0.6,72.5c-0.3,24.2-0.5,48.4-1,72.5c-0.4,24.2-0.8,48.4-1.4,72.5c-0.1-2.9-0.1-5.8-0.2-8.6
		c-0.5-21.3-0.9-42.6-1.2-63.9c-0.4-24.2-0.7-48.4-1-72.5L9.1,143L8.8,70.5l0-3.4l3.2,0h0.2c8.3,0,16.7-1.7,24.4-4.9
		c7.7-3.2,14.7-7.9,20.6-13.8C63,42.5,67.8,35.4,71,27.7s4.9-16,4.9-24.4l0-3.4h3.4c3.9,0,7.9,0,11.8,0v0h953.7v0c2,0,4,0,6,0h3.4
		l0,3.4c0,8.3,1.7,16.7,4.9,24.4c3.2,7.7,7.9,14.7,13.8,20.6c5.9,5.9,12.9,10.6,20.6,13.8c7.7,3.2,16,4.9,24.3,4.9h0.1L1121.2,67.1z
		"/>
	<g>
		<path fill-rule="evenodd" clip-rule="evenodd" fill="#FFFFFF" d="M598.7,593.3c-8.7-8.8-22.9-8.8-31.6,0c-0.3,0.3-0.5,0.5-0.7,0.8
			c-0.5,0.6-1.1,1.2-1.5,1.9c-0.5-0.7-1-1.3-1.5-1.9c-0.2-0.3-0.5-0.5-0.7-0.8c-8.7-8.8-22.9-8.8-31.6,0c-6.4,6.4-8.1,15.6-5.2,23.6
			c1.1,3,2.8,5.8,5.2,8.2c0.3,0.3,0.5,0.5,0.8,0.7l0,0l33.1,33.2l33.1-33.2l0,0c0.3-0.2,0.5-0.5,0.8-0.7c2.4-2.4,4.1-5.2,5.2-8.2
			C606.8,609,605.1,599.7,598.7,593.3z M594.2,620.5c-0.3,0.3-0.5,0.5-0.8,0.7l0,0L564.9,650l-28.6-28.7l0,0
			c-0.3-0.2-0.5-0.5-0.8-0.7c-1.1-1.1-2-2.3-2.7-3.6c-3.4-6.1-2.5-13.9,2.7-19c6.2-6.3,16.3-6.3,22.6,0c0.3,0.3,0.5,0.5,0.7,0.8l0,0
			l6,6l6-6l0,0c0.2-0.3,0.5-0.5,0.7-0.8c6.2-6.3,16.4-6.3,22.6,0c5.1,5.2,6,13,2.7,19C596.2,618.2,595.3,619.4,594.2,620.5z"/>
		<path fill-rule="evenodd" clip-rule="evenodd" fill="#FFFFFF" d="M1116.4,288.1c-0.4-24.2-0.7-48.4-1-72.5l-0.6-72.5l-0.3-69.3
			c-8.1-0.4-16.1-2.1-23.6-5.2c-8.5-3.5-16.4-8.7-22.9-15.3c-6.5-6.5-11.7-14.4-15.3-22.9c-3.1-7.5-4.9-15.5-5.2-23.6
			c-1.9,0-3.9,0-5.8,0H91.1v0c-2.8,0-5.7,0-8.5,0c-0.4,8.1-2.1,16.1-5.2,23.6c-3.5,8.5-8.7,16.4-15.3,22.9
			C55.5,59.8,47.7,65,39.1,68.5c-7.5,3.1-15.6,4.9-23.6,5.2L15.2,143l-0.6,72.5c-0.3,24.2-0.5,48.4-1,72.5
			c-0.4,24.2-0.8,48.4-1.4,72.5c-0.1-2.9-0.1-5.8-0.2-8.6v264.9h477.9c0,41.4,33.6,75,75,75c41.4,0,75-33.6,75-75h477.9V358.1
			C1117.2,334.8,1116.8,311.5,1116.4,288.1z M603.9,616.9c-1.1,3-2.8,5.8-5.2,8.2c-0.3,0.3-0.5,0.5-0.8,0.7l0,0l-33.1,33.2
			l-33.1-33.2l0,0c-0.3-0.2-0.5-0.5-0.8-0.7c-2.4-2.4-4.1-5.2-5.2-8.2c-2.9-7.9-1.2-17.2,5.2-23.6c8.7-8.8,22.9-8.8,31.6,0
			c0.3,0.3,0.5,0.5,0.7,0.8c0.5,0.6,1.1,1.2,1.5,1.9c0.5-0.7,1-1.3,1.5-1.9c0.2-0.3,0.5-0.5,0.7-0.8c8.7-8.8,22.9-8.8,31.6,0
			C605.1,599.7,606.8,609,603.9,616.9z"/>
	</g>
	<g>
		<path fill="#DEB58C" d="M598.7,593.3c-8.7-8.8-22.9-8.8-31.6,0c-0.3,0.3-0.5,0.5-0.7,0.8c-0.5,0.6-1.1,1.2-1.5,1.9
			c-0.5-0.7-1-1.3-1.5-1.9c-0.2-0.3-0.5-0.5-0.7-0.8c-8.7-8.8-22.9-8.8-31.6,0c-6.4,6.4-8.1,15.6-5.2,23.6c1.1,3,2.8,5.8,5.2,8.2
			c0.3,0.3,0.5,0.5,0.8,0.7l0,0l33.1,33.2l33.1-33.2l0,0c0.3-0.2,0.5-0.5,0.8-0.7c2.4-2.4,4.1-5.2,5.2-8.2
			C606.8,609,605.1,599.7,598.7,593.3z M594.2,620.5c-0.3,0.3-0.5,0.5-0.8,0.7l0,0L564.9,650l-28.6-28.7l0,0
			c-0.3-0.2-0.5-0.5-0.8-0.7c-1.1-1.1-2-2.3-2.7-3.6c-3.4-6.1-2.5-13.9,2.7-19c6.2-6.3,16.3-6.3,22.6,0c0.3,0.3,0.5,0.5,0.7,0.8l0,0
			l6,6l6-6l0,0c0.2-0.3,0.5-0.5,0.7-0.8c6.2-6.3,16.4-6.3,22.6,0c5.1,5.2,6,13,2.7,19C596.2,618.2,595.3,619.4,594.2,620.5z"/>
		<path fill="#FFFFFF" d="M596.9,616.9c-0.7,1.3-1.6,2.5-2.7,3.6c-0.3,0.3-0.5,0.5-0.8,0.7l0,0L564.9,650l-28.6-28.7l0,0
			c-0.3-0.2-0.5-0.5-0.8-0.7c-1.1-1.1-2-2.3-2.7-3.6c-3.4-6.1-2.5-13.9,2.7-19c6.2-6.3,16.3-6.3,22.6,0c0.3,0.3,0.5,0.5,0.7,0.8l0,0
			l6,6l6-6l0,0c0.2-0.3,0.5-0.5,0.7-0.8c6.2-6.3,16.4-6.3,22.6,0C599.4,603,600.3,610.8,596.9,616.9z"/>
	</g>
</g>
</svg>
