<?xml version="1.0" encoding="utf-8"?>
<!-- Generator: Adobe Illustrator 17.1.0, SVG Export Plug-In . SVG Version: 6.00 Build 0)  -->
<!DOCTYPE svg PUBLIC "-//W3C//DTD SVG 1.1//EN" "http://www.w3.org/Graphics/SVG/1.1/DTD/svg11.dtd">
<svg version="1.1" id="Layer_1" xmlns="http://www.w3.org/2000/svg" xmlns:xlink="http://www.w3.org/1999/xlink" x="0px" y="0px"
	 viewBox="0 0 17 17" enable-background="new 0 0 17 17" xml:space="preserve">
<rect x="2.3" y="11" fill="#F8E5C8" width="13.2" height="1.6"/>
<g>
	<path fill="#FFFFFF" d="M9.4,11.7L9.4,11.7c0-0.1-0.1-0.2-0.1-0.2c-0.1-0.1-0.2-0.1-0.3,0c0,0,0,0,0,0l0,0l-0.1,0.1l-0.1-0.1l0,0
		c0,0,0,0,0,0c-0.1-0.1-0.2-0.1-0.3,0c-0.1,0.1-0.1,0.2,0,0.2H8.5c0-0.1,0-0.2,0.1-0.3c0.1-0.1,0.3-0.1,0.4,0c0,0,0,0,0,0
		c0,0,0,0,0,0c0,0,0,0,0,0c0,0,0,0,0,0c0.1-0.1,0.3-0.1,0.4,0C9.4,11.5,9.4,11.7,9.4,11.7z"/>
	<path fill="#F8E5C8" d="M15.6,5.2L15.6,5.2l0,0.9l0,0.9c0,0.3,0,0.6,0,0.9c0,0.3,0,0.6,0,0.8c0-0.3,0-0.6,0-0.8c0-0.3,0-0.6,0-0.9
		l0-0.9L15.6,5.2L15.6,5.2c-0.2,0.1-0.3,0-0.4,0C15.1,5.1,15,5.1,15,5c-0.1-0.1-0.1-0.2-0.2-0.3c0-0.1-0.1-0.2-0.1-0.3v0H3.2v0
		c0,0.1,0,0.2-0.1,0.3C3.1,4.8,3,4.9,2.9,5c0,0,0,0-0.1,0.1c0,0,0,0-0.1,0c0,0-0.1,0.1-0.1,0.1c-0.1,0-0.2,0.1-0.3,0.1l0,0.8l0,0.9
		c0,0.3,0,0.6,0,0.9c0,0.3,0,0.5,0,0.8c0-0.3,0-0.5,0-0.8c0-0.3,0-0.6,0-0.9l0-0.9l0-0.9v0h0c0.1,0,0.2,0,0.3-0.1
		c0.1,0,0.2-0.1,0.2-0.2C2.9,4.9,3,4.8,3,4.7c0-0.1,0.1-0.2,0.1-0.3v0h11.7v0c0,0.1,0,0.2,0.1,0.3c0,0.1,0.1,0.2,0.2,0.2
		c0.1,0.1,0.2,0.1,0.2,0.2C15.4,5.1,15.5,5.2,15.6,5.2L15.6,5.2z"/>
	<path fill="#FFFFFF" d="M2.9,5L2.9,5C2.9,5,2.9,5,2.9,5C2.9,5,2.9,5,2.9,5z"/>
	<rect x="8.9" y="-1.3" fill="#FFFFFF" width="0" height="11.6"/>
	<path fill="#FFFFFF" d="M15.5,5.2L15.5,5.2c-0.1,0-0.2,0-0.3-0.1C15.1,5.1,15,5.1,15,5v0c0.1,0.1,0.2,0.1,0.3,0.2
		C15.3,5.2,15.4,5.2,15.5,5.2z"/>
	<g>
		<path fill="#FFFFFF" d="M9.3,11.5c-0.1-0.1-0.3-0.1-0.4,0c0,0,0,0,0,0c0,0,0,0,0,0c0,0,0,0,0,0c0,0,0,0,0,0
			c-0.1-0.1-0.3-0.1-0.4,0c-0.1,0.1-0.1,0.2-0.1,0.3c0,0,0,0.1,0.1,0.1c0,0,0,0,0,0l0,0l0.4,0.4l0.4-0.4l0,0c0,0,0,0,0,0
			c0,0,0-0.1,0.1-0.1C9.4,11.7,9.4,11.5,9.3,11.5z M9.3,11.8C9.3,11.8,9.3,11.8,9.3,11.8L9.3,11.8l-0.4,0.4l-0.3-0.3l0,0
			c0,0,0,0,0,0c0,0,0,0,0,0c0-0.1,0-0.2,0-0.2c0.1-0.1,0.2-0.1,0.3,0c0,0,0,0,0,0l0,0l0.1,0.1L9,11.5l0,0c0,0,0,0,0,0
			c0.1-0.1,0.2-0.1,0.3,0C9.3,11.6,9.4,11.7,9.3,11.8C9.3,11.8,9.3,11.8,9.3,11.8z"/>
		<path fill="#FFFFFF" d="M15.5,7.8c0-0.3,0-0.6,0-0.9l0-0.9l0-0.8c-0.1,0-0.2,0-0.3-0.1C15.1,5.1,15,5.1,15,5v0
			c-0.1-0.1-0.1-0.2-0.2-0.3c0-0.1-0.1-0.2-0.1-0.3H3.2c0,0.1,0,0.2-0.1,0.3C3.1,4.8,3,4.9,2.9,5v0c0,0,0,0-0.1,0.1c0,0,0,0-0.1,0
			c0,0-0.1,0.1-0.1,0.1c-0.1,0-0.2,0.1-0.3,0.1l0,0.8l0,0.9c0,0.3,0,0.6,0,0.9c0,0.3,0,0.5,0,0.8v3.2H8c0,0.5,0.4,0.9,0.9,0.9
			c0.5,0,0.9-0.4,0.9-0.9h5.7V8.6C15.6,8.4,15.5,8.1,15.5,7.8z M9.4,11.7C9.4,11.8,9.4,11.8,9.4,11.7c-0.1,0.1-0.1,0.1-0.1,0.1h0
			l-0.4,0.4l-0.4-0.4c0,0,0,0,0,0h0c0,0,0-0.1-0.1-0.1c0,0,0-0.1,0-0.1c0,0,0,0,0,0c0,0,0,0,0,0c0,0,0-0.1,0.1-0.1h0
			c0.1-0.1,0.3-0.1,0.4,0c0,0,0,0,0,0c0,0,0,0,0,0c0,0,0,0,0,0c0,0,0,0,0,0h0c0.1-0.1,0.3-0.1,0.4,0c0,0,0,0,0,0c0,0,0,0,0,0.1
			C9.4,11.6,9.4,11.6,9.4,11.7C9.4,11.7,9.4,11.7,9.4,11.7z"/>
	</g>
	<g>
		<path fill="#DEB58C" d="M9.3,11.5c-0.1-0.1-0.3-0.1-0.4,0c0,0,0,0,0,0c0,0,0,0,0,0c0,0,0,0,0,0c0,0,0,0,0,0
			c-0.1-0.1-0.3-0.1-0.4,0c-0.1,0.1-0.1,0.2-0.1,0.3c0,0,0,0.1,0.1,0.1c0,0,0,0,0,0l0,0l0.4,0.4l0.4-0.4l0,0c0,0,0,0,0,0
			c0,0,0-0.1,0.1-0.1C9.4,11.7,9.4,11.5,9.3,11.5z M9.3,11.8C9.3,11.8,9.3,11.8,9.3,11.8L9.3,11.8l-0.4,0.4l-0.3-0.3l0,0
			c0,0,0,0,0,0c0,0,0,0,0,0c0-0.1,0-0.2,0-0.2c0.1-0.1,0.2-0.1,0.3,0c0,0,0,0,0,0l0,0l0.1,0.1L9,11.5l0,0c0,0,0,0,0,0
			c0.1-0.1,0.2-0.1,0.3,0C9.3,11.6,9.4,11.7,9.3,11.8C9.3,11.8,9.3,11.8,9.3,11.8z"/>
		<path fill="#FFFFFF" d="M9.3,11.7C9.3,11.8,9.3,11.8,9.3,11.7C9.3,11.8,9.3,11.8,9.3,11.7L9.3,11.7l-0.4,0.4l-0.3-0.3l0,0
			c0,0,0,0,0,0c0,0,0,0,0,0c0-0.1,0-0.2,0-0.2c0.1-0.1,0.2-0.1,0.3,0c0,0,0,0,0,0l0,0l0.1,0.1L9,11.5l0,0c0,0,0,0,0,0
			c0.1-0.1,0.2-0.1,0.3,0C9.3,11.6,9.4,11.7,9.3,11.7z"/>
	</g>
</g>
</svg>
