<?xml version="1.0" encoding="utf-8"?>
<!-- Generator: Adobe Illustrator 17.1.0, SVG Export Plug-In . SVG Version: 6.00 Build 0)  -->
<!DOCTYPE svg PUBLIC "-//W3C//DTD SVG 1.1//EN" "http://www.w3.org/Graphics/SVG/1.1/DTD/svg11.dtd">
<svg version="1.1" id="Layer_1" xmlns="http://www.w3.org/2000/svg" xmlns:xlink="http://www.w3.org/1999/xlink" x="0px" y="0px"
	 viewBox="0 0 135 135" enable-background="new 0 0 135 135" xml:space="preserve">
<g>
	<g>
		<path fill="#C5B08F" d="M89.6,44.6V21.7l-6,6c-4.3-8.2-10.5-17.5-16.1-25.2c-5.1,7-9.3,13.4-12.7,19.2l-9.4-9.4v19h3.4V20.5
			l6.7,6.7c1.4-2.5,5.2-9.2,12-18.9c2.9,4.1,9.6,14,14.2,23l1.1,2.1l3.5-3.5v14.6c0,5-1.9,9.7-5.5,13.2c-3.5,3.5-8.2,5.5-13.2,5.5
			c-10.3,0-18.7-8.4-18.7-18.7v-8.7h-3.4v8.7c0,12.2,9.9,22.1,22.1,22.1c5.9,0,11.5-2.3,15.6-6.5C87.3,56,89.6,50.5,89.6,44.6z"/>
		<path fill="#C5B08F" d="M78.4,48c0-5.5-8.6-17.1-9.6-18.5l-1.4-1.8L66,29.5c-1,1.3-9.6,13-9.6,18.5c0,6,4.9,10.9,10.9,10.9
			C73.5,58.9,78.4,54,78.4,48z M60,48c0-2.9,4.2-9.8,7.5-14.5C70.8,38.2,75,45.1,75,48c0,4.1-3.4,7.5-7.5,7.5S60,52.1,60,48z"/>
		<path fill="#C5B08F" d="M37.6,109.7l1.2,3.2c8.2-3,13.8-10.9,13.8-19.6c0-9.9-8.1-18-18-18c-8.6,0-15.5,7-15.5,15.5
			c0,7.4,6,13.5,13.5,13.5c6.5,0,11.7-5.3,11.7-11.7c0-5.6-4.6-10.2-10.2-10.2c-4.9,0-8.9,4-8.9,8.9c0,4.3,3.5,7.8,7.8,7.8v-3.4
			c-2.4,0-4.4-2-4.4-4.4c0-3,2.5-5.5,5.5-5.5c3.7,0,6.8,3.1,6.8,6.8c0,4.6-3.7,8.3-8.3,8.3c-5.6,0-10.1-4.5-10.1-10.1
			c0-6.7,5.4-12.1,12.1-12.1c8,0,14.6,6.5,14.6,14.6C49.1,100.6,44.5,107.2,37.6,109.7z"/>
		<path fill="#C5B08F" d="M119.1,74.2l-2.8,1.9c3.9,5.8,5.9,10.6,5.9,14.1c0,10.6-8.1,18.1-19.9,18.8v-8l12.4-12.4l-2.4-2.4
			l-9.9,9.9v-8.6l8.9-8.9l-2.4-2.4l-6.5,6.5V73H99v9.7l-6.5-6.5L90,78.7l8.9,8.9v8.6L89,86.3l-2.4,2.4L98.9,101v7.9
			C87.1,108.3,79,100.7,79,90.2c0-9.6,14.7-25.8,21.6-32.6c2.4,2.4,8.1,8.3,13.1,14.8l2.7-2c-4-5.4-9.5-11.6-15.8-17.5
			c-8.3,7.9-25,25.8-25,37.3c0,6.7,2.6,12.3,7.4,16.4c4.1,3.4,9.7,5.5,15.9,5.8v6.3h3.4v-6.3c6.2-0.3,11.7-2.3,15.9-5.8
			c4.9-4.1,7.4-9.7,7.4-16.4C125.6,86,123.4,80.6,119.1,74.2z"/>
		<path fill="#C5B08F" d="M37.1,63.3C21.8,63.3,9.4,75.7,9.4,91s12.4,27.7,27.7,27.7c6.5,0,12.8-2.3,17.8-6.5l-2.2-2.6
			c-4.4,3.7-9.9,5.7-15.6,5.7c-13.4,0-24.3-10.9-24.3-24.3s10.9-24.3,24.3-24.3S61.4,77.6,61.4,91c0,5.7-2,11.2-5.7,15.6l2.6,2.2
			c4.2-5,6.5-11.3,6.5-17.8C64.8,75.7,52.4,63.3,37.1,63.3z"/>
		<path fill="#C5B08F" d="M76.6,33.9c-1.2-2.4-2.7-5.2-4.5-8.1L75,24c1.8,3,3.3,5.8,4.6,8.3L76.6,33.9z M71,23.9
			C70.4,23,69.8,22,69.2,21l2.9-1.8c0.6,1,1.2,2,1.8,2.9L71,23.9z M67.9,19.1c-0.6-0.9-1.2-1.9-1.9-2.8l2.8-1.9
			c0.6,1,1.3,1.9,1.9,2.9L67.9,19.1z"/>
		<path fill="#C5B08F" d="M55.3,91c0-6.2-3.1-12-8.4-15.3l1.8-2.9c6.2,4,10,10.8,10,18.2H55.3z M45.1,74.6c-0.9-0.5-1.9-0.8-2.9-1.1
			l1-3.3c1.2,0.3,2.3,0.8,3.4,1.3L45.1,74.6z M40.2,73c-1-0.2-2.1-0.3-3.1-0.3v-3.4c1.2,0,2.5,0.1,3.7,0.3L40.2,73z"/>
		<path fill="#C5B08F" d="M107.1,105.1l-0.9-3.3c2.2-0.6,4.2-1.6,5.7-2.8l0.1-0.1l2.2,2.6l-0.1,0.1
			C112.1,103.2,109.8,104.4,107.1,105.1z M116,99.7l-2.6-2.2c0.6-0.8,1.1-1.6,1.5-2.5l3.1,1.3C117.5,97.5,116.8,98.7,116,99.7z
			 M118.8,93.9l-3.3-0.8c0.2-0.9,0.3-1.9,0.3-3h3.4C119.2,91.5,119,92.7,118.8,93.9z"/>
	</g>
	<circle fill="none" stroke="#C5B08F" stroke-width="4" stroke-miterlimit="10" cx="67.5" cy="68" r="64.5"/>
</g>
</svg>
