<?xml version="1.0" encoding="utf-8"?>
<!-- Generator: Adobe Illustrator 17.1.0, SVG Export Plug-In . SVG Version: 6.00 Build 0)  -->
<!DOCTYPE svg PUBLIC "-//W3C//DTD SVG 1.1//EN" "http://www.w3.org/Graphics/SVG/1.1/DTD/svg11.dtd">
<svg version="1.1" id="Layer_1" xmlns="http://www.w3.org/2000/svg" xmlns:xlink="http://www.w3.org/1999/xlink" x="0px" y="0px"
	 viewBox="0 0 50 50" enable-background="new 0 0 50 50" xml:space="preserve">
<g>
	<g>
		<g>
			<path fill="#C7B18E" d="M25,30c2.7,0,5-2.2,5-5c0-1.1-0.4-2.1-0.9-2.9c-0.9-1.3-2.4-2.1-4-2.1c-1.7,0-3.1,0.8-4,2.1
				C20.4,22.9,20,23.9,20,25C20,27.7,22.3,30,25,30z"/>
			<polygon fill="#C7B18E" points="35.9,18.9 35.9,14.8 35.9,14.1 35.2,14.1 31.1,14.1 31.1,18.9 			"/>
			<path fill="#C7B18E" d="M25,0.2C11.3,0.2,0.2,11.3,0.2,25c0,13.7,11.1,24.8,24.8,24.8c13.7,0,24.8-11.1,24.8-24.8
				C49.8,11.3,38.7,0.2,25,0.2z M39.1,22.1v11.6c0,3-2.4,5.5-5.5,5.5H16.3c-3,0-5.5-2.4-5.5-5.5V22.1v-5.8c0-3,2.4-5.5,5.5-5.5h17.3
				c3,0,5.5,2.4,5.5,5.5V22.1z"/>
			<path fill="#C7B18E" d="M32.7,25c0,4.3-3.5,7.7-7.7,7.7s-7.7-3.5-7.7-7.7c0-1,0.2-2,0.6-2.9h-4.2v11.6c0,1.5,1.2,2.7,2.7,2.7
				h17.3c1.5,0,2.7-1.2,2.7-2.7V22.1h-4.2C32.5,23,32.7,24,32.7,25z"/>
		</g>
	</g>
</g>
</svg>
