<?xml version="1.0" encoding="utf-8"?>
<!-- Generator: Adobe Illustrator 17.1.0, SVG Export Plug-In . SVG Version: 6.00 Build 0)  -->
<!DOCTYPE svg PUBLIC "-//W3C//DTD SVG 1.1//EN" "http://www.w3.org/Graphics/SVG/1.1/DTD/svg11.dtd">
<svg version="1.1" id="Layer_1" xmlns="http://www.w3.org/2000/svg" xmlns:xlink="http://www.w3.org/1999/xlink" x="0px" y="0px"
	 viewBox="0 0 135 135" enable-background="new 0 0 135 135" xml:space="preserve">
<circle fill="none" stroke="#C7B18E" stroke-width="4" stroke-miterlimit="10" cx="67.5" cy="67.5" r="64.5"/>
<path fill="#C7B18E" d="M79.4,39.1c-5.1-3.4-11.7-3.7-17.1-0.9c-5.4-2.8-11.9-2.6-17,0.9c-0.7,0.5-1.2,1.3-1.2,2.2v21
	c0,1,0.5,1.9,1.4,2.3c0.2,0.1,0.4,0.2,0.6,0.2c0.7,0.2,1.5,0.1,2.1-0.4c3.3-2.2,7.4-2.5,11-1c0.1,0,0.2,0.1,0.3,0.2
	c0.1,0,0.2,0.1,0.3,0.1v7.7c-0.1,0-0.2-0.1-0.3-0.2c-1.5-0.8-3.1-1.3-4.9-1.3h-2.6c-0.2,0-0.5,0-0.7,0.1c-1.1,0.3-1.9,1.3-1.9,2.5
	v2.6c0,5.7,4.7,10.4,10.4,10.4h5.2c5.7,0,10.4-4.7,10.4-10.4v-2.6c0-1-0.5-1.8-1.4-2.3c0,0,0,0,0,0c-0.4-0.2-0.8-0.3-1.2-0.3h-2.6
	c-1.9,0-3.7,0.5-5.2,1.4v-7.7c3.7-1.9,8.1-1.6,11.6,0.7c0.7,0.4,1.5,0.6,2.2,0.3c0.2,0,0.3-0.1,0.5-0.2c0.8-0.4,1.4-1.3,1.4-2.3v-21
	C80.5,40.4,80.1,39.6,79.4,39.1z M59.4,80.5c-2.6-0.1-4.7-2.3-4.9-4.9c0-0.1,0-0.2,0-0.3c2.9,0,5.2,2.3,5.2,5.2
	C59.6,80.5,59.5,80.5,59.4,80.5z M59.7,58.2c-3.4-1.1-7-1.1-10.4,0v-0.5c-0.2,0.1-0.4,0.1-0.6,0.2V41.9c3.4-1.7,7.4-1.7,10.8,0v0.7
	c0.1,0,0.2,0.1,0.3,0.1V58.2z M64.8,41.9c3.4-1.7,7.4-1.7,10.8,0v15.9c-0.1,0-0.2-0.1-0.3-0.1v0.4c-3.4-1.1-7-1.1-10.4,0v-0.3
	c0,0-0.1,0-0.1,0V41.9z M70.1,75.6c-0.1,2.7-2.4,4.9-5.2,4.9c0-0.3,0-0.6,0.1-0.9c0.4-2.4,2.5-4.3,5.1-4.3
	C70.1,75.4,70.1,75.5,70.1,75.6z M79.4,39.1c-5.1-3.4-11.7-3.7-17.1-0.9c-5.4-2.8-11.9-2.6-17,0.9c-0.7,0.5-1.2,1.3-1.2,2.2v21
	c0,1,0.5,1.9,1.4,2.3c0.2,0.1,0.4,0.2,0.6,0.2c0.7,0.2,1.5,0.1,2.1-0.4c3.3-2.2,7.4-2.5,11-1c0.1,0,0.2,0.1,0.3,0.2
	c0.1,0,0.2,0.1,0.3,0.1v7.7c-0.1,0-0.2-0.1-0.3-0.2c-1.5-0.8-3.1-1.3-4.9-1.3h-2.6c-0.2,0-0.5,0-0.7,0.1c-1.1,0.3-1.9,1.3-1.9,2.5
	v2.6c0,5.7,4.7,10.4,10.4,10.4h5.2c5.7,0,10.4-4.7,10.4-10.4v-2.6c0-1-0.5-1.8-1.4-2.3c0,0,0,0,0,0c-0.4-0.2-0.8-0.3-1.2-0.3h-2.6
	c-1.9,0-3.7,0.5-5.2,1.4v-7.7c3.7-1.9,8.1-1.6,11.6,0.7c0.7,0.4,1.5,0.6,2.2,0.3c0.2,0,0.3-0.1,0.5-0.2c0.8-0.4,1.4-1.3,1.4-2.3v-21
	C80.5,40.4,80.1,39.6,79.4,39.1z M59.4,80.5c-2.6-0.1-4.7-2.3-4.9-4.9c0-0.1,0-0.2,0-0.3c2.9,0,5.2,2.3,5.2,5.2
	C59.6,80.5,59.5,80.5,59.4,80.5z M59.7,58.2c-3.4-1.1-7-1.1-10.4,0v-0.5c-0.2,0.1-0.4,0.1-0.6,0.2V41.9c3.4-1.7,7.4-1.7,10.8,0v0.7
	c0.1,0,0.2,0.1,0.3,0.1V58.2z M64.8,41.9c3.4-1.7,7.4-1.7,10.8,0v15.9c-0.1,0-0.2-0.1-0.3-0.1v0.4c-3.4-1.1-7-1.1-10.4,0v-0.3
	c0,0-0.1,0-0.1,0V41.9z M70.1,75.6c-0.1,2.7-2.4,4.9-5.2,4.9c0-0.3,0-0.6,0.1-0.9c0.4-2.4,2.5-4.3,5.1-4.3
	C70.1,75.4,70.1,75.5,70.1,75.6z M79.4,39.1c-5.1-3.4-11.7-3.7-17.1-0.9c-5.4-2.8-11.9-2.6-17,0.9c-0.7,0.5-1.2,1.3-1.2,2.2v21
	c0,1,0.5,1.9,1.4,2.3c0.2,0.1,0.4,0.2,0.6,0.2c0.7,0.2,1.5,0.1,2.1-0.4c3.3-2.2,7.4-2.5,11-1c0.1,0,0.2,0.1,0.3,0.2
	c0.1,0,0.2,0.1,0.3,0.1v7.7c-0.1,0-0.2-0.1-0.3-0.2c-1.5-0.8-3.1-1.3-4.9-1.3h-2.6c-0.2,0-0.5,0-0.7,0.1c-1.1,0.3-1.9,1.3-1.9,2.5
	v2.6c0,5.7,4.7,10.4,10.4,10.4h5.2c5.7,0,10.4-4.7,10.4-10.4v-2.6c0-1-0.5-1.8-1.4-2.3c0,0,0,0,0,0c-0.4-0.2-0.8-0.3-1.2-0.3h-2.6
	c-1.9,0-3.7,0.5-5.2,1.4v-7.7c3.7-1.9,8.1-1.6,11.6,0.7c0.7,0.4,1.5,0.6,2.2,0.3c0.2,0,0.3-0.1,0.5-0.2c0.8-0.4,1.4-1.3,1.4-2.3v-21
	C80.5,40.4,80.1,39.6,79.4,39.1z M59.4,80.5c-2.6-0.1-4.7-2.3-4.9-4.9c0-0.1,0-0.2,0-0.3c2.9,0,5.2,2.3,5.2,5.2
	C59.6,80.5,59.5,80.5,59.4,80.5z M59.7,58.2c-3.4-1.1-7-1.1-10.4,0v-0.5c-0.2,0.1-0.4,0.1-0.6,0.2V41.9c3.4-1.7,7.4-1.7,10.8,0v0.7
	c0.1,0,0.2,0.1,0.3,0.1V58.2z M64.8,41.9c3.4-1.7,7.4-1.7,10.8,0v15.9c-0.1,0-0.2-0.1-0.3-0.1v0.4c-3.4-1.1-7-1.1-10.4,0v-0.3
	c0,0-0.1,0-0.1,0V41.9z M70.1,75.6c-0.1,2.7-2.4,4.9-5.2,4.9c0-0.3,0-0.6,0.1-0.9c0.4-2.4,2.5-4.3,5.1-4.3
	C70.1,75.4,70.1,75.5,70.1,75.6z M79.4,39.1c-5.1-3.4-11.7-3.7-17.1-0.9c-5.4-2.8-11.9-2.6-17,0.9c-0.7,0.5-1.2,1.3-1.2,2.2v21
	c0,1,0.5,1.9,1.4,2.3c0.2,0.1,0.4,0.2,0.6,0.2c0.7,0.2,1.5,0.1,2.1-0.4c3.3-2.2,7.4-2.5,11-1c0.1,0,0.2,0.1,0.3,0.2
	c0.1,0,0.2,0.1,0.3,0.1v7.7c-0.1,0-0.2-0.1-0.3-0.2c-1.5-0.8-3.1-1.3-4.9-1.3h-2.6c-0.2,0-0.5,0-0.7,0.1c-1.1,0.3-1.9,1.3-1.9,2.5
	v2.6c0,5.7,4.7,10.4,10.4,10.4h5.2c5.7,0,10.4-4.7,10.4-10.4v-2.6c0-1-0.5-1.8-1.4-2.3c0,0,0,0,0,0c-0.4-0.2-0.8-0.3-1.2-0.3h-2.6
	c-1.9,0-3.7,0.5-5.2,1.4v-7.7c3.7-1.9,8.1-1.6,11.6,0.7c0.7,0.4,1.5,0.6,2.2,0.3c0.2,0,0.3-0.1,0.5-0.2c0.8-0.4,1.4-1.3,1.4-2.3v-21
	C80.5,40.4,80.1,39.6,79.4,39.1z M59.4,80.5c-2.6-0.1-4.7-2.3-4.9-4.9c0-0.1,0-0.2,0-0.3c2.9,0,5.2,2.3,5.2,5.2
	C59.6,80.5,59.5,80.5,59.4,80.5z M59.7,58.2c-3.4-1.1-7-1.1-10.4,0v-0.5c-0.2,0.1-0.4,0.1-0.6,0.2V41.9c3.4-1.7,7.4-1.7,10.8,0v0.7
	c0.1,0,0.2,0.1,0.3,0.1V58.2z M64.8,41.9c3.4-1.7,7.4-1.7,10.8,0v15.9c-0.1,0-0.2-0.1-0.3-0.1v0.4c-3.4-1.1-7-1.1-10.4,0v-0.3
	c0,0-0.1,0-0.1,0V41.9z M70.1,75.6c-0.1,2.7-2.4,4.9-5.2,4.9c0-0.3,0-0.6,0.1-0.9c0.4-2.4,2.5-4.3,5.1-4.3
	C70.1,75.4,70.1,75.5,70.1,75.6z M79.4,39.1c-5.1-3.4-11.7-3.7-17.1-0.9c-5.4-2.8-11.9-2.6-17,0.9c-0.7,0.5-1.2,1.3-1.2,2.2v21
	c0,1,0.5,1.9,1.4,2.3c0.2,0.1,0.4,0.2,0.6,0.2c0.7,0.2,1.5,0.1,2.1-0.4c3.3-2.2,7.4-2.5,11-1c0.1,0,0.2,0.1,0.3,0.2
	c0.1,0,0.2,0.1,0.3,0.1v7.7c-0.1,0-0.2-0.1-0.3-0.2c-1.5-0.8-3.1-1.3-4.9-1.3h-2.6c-0.2,0-0.5,0-0.7,0.1c-1.1,0.3-1.9,1.3-1.9,2.5
	v2.6c0,5.7,4.7,10.4,10.4,10.4h5.2c5.7,0,10.4-4.7,10.4-10.4v-2.6c0-1-0.5-1.8-1.4-2.3c0,0,0,0,0,0c-0.4-0.2-0.8-0.3-1.2-0.3h-2.6
	c-1.9,0-3.7,0.5-5.2,1.4v-7.7c3.7-1.9,8.1-1.6,11.6,0.7c0.7,0.4,1.5,0.6,2.2,0.3c0.2,0,0.3-0.1,0.5-0.2c0.8-0.4,1.4-1.3,1.4-2.3v-21
	C80.5,40.4,80.1,39.6,79.4,39.1z M59.4,80.5c-2.6-0.1-4.7-2.3-4.9-4.9c0-0.1,0-0.2,0-0.3c2.9,0,5.2,2.3,5.2,5.2
	C59.6,80.5,59.5,80.5,59.4,80.5z M59.7,58.2c-3.4-1.1-7-1.1-10.4,0v-0.5c-0.2,0.1-0.4,0.1-0.6,0.2V41.9c3.4-1.7,7.4-1.7,10.8,0v0.7
	c0.1,0,0.2,0.1,0.3,0.1V58.2z M64.8,41.9c3.4-1.7,7.4-1.7,10.8,0v15.9c-0.1,0-0.2-0.1-0.3-0.1v0.4c-3.4-1.1-7-1.1-10.4,0v-0.3
	c0,0-0.1,0-0.1,0V41.9z M70.1,75.6c-0.1,2.7-2.4,4.9-5.2,4.9c0-0.3,0-0.6,0.1-0.9c0.4-2.4,2.5-4.3,5.1-4.3
	C70.1,75.4,70.1,75.5,70.1,75.6z M79.4,39.1c-5.1-3.4-11.7-3.7-17.1-0.9c-5.4-2.8-11.9-2.6-17,0.9c-0.7,0.5-1.2,1.3-1.2,2.2v21
	c0,1,0.5,1.9,1.4,2.3c0.2,0.1,0.4,0.2,0.6,0.2c0.7,0.2,1.5,0.1,2.1-0.4c3.3-2.2,7.4-2.5,11-1c0.1,0,0.2,0.1,0.3,0.2
	c0.1,0,0.2,0.1,0.3,0.1v7.7c-0.1,0-0.2-0.1-0.3-0.2c-1.5-0.8-3.1-1.3-4.9-1.3h-2.6c-0.2,0-0.5,0-0.7,0.1c-1.1,0.3-1.9,1.3-1.9,2.5
	v2.6c0,5.7,4.7,10.4,10.4,10.4h5.2c5.7,0,10.4-4.7,10.4-10.4v-2.6c0-1-0.5-1.8-1.4-2.3c0,0,0,0,0,0c-0.4-0.2-0.8-0.3-1.2-0.3h-2.6
	c-1.9,0-3.7,0.5-5.2,1.4v-7.7c3.7-1.9,8.1-1.6,11.6,0.7c0.7,0.4,1.5,0.6,2.2,0.3c0.2,0,0.3-0.1,0.5-0.2c0.8-0.4,1.4-1.3,1.4-2.3v-21
	C80.5,40.4,80.1,39.6,79.4,39.1z M59.4,80.5c-2.6-0.1-4.7-2.3-4.9-4.9c0-0.1,0-0.2,0-0.3c2.9,0,5.2,2.3,5.2,5.2
	C59.6,80.5,59.5,80.5,59.4,80.5z M59.7,58.2c-3.4-1.1-7-1.1-10.4,0v-0.5c-0.2,0.1-0.4,0.1-0.6,0.2V41.9c3.4-1.7,7.4-1.7,10.8,0v0.7
	c0.1,0,0.2,0.1,0.3,0.1V58.2z M64.8,41.9c3.4-1.7,7.4-1.7,10.8,0v15.9c-0.1,0-0.2-0.1-0.3-0.1v0.4c-3.4-1.1-7-1.1-10.4,0v-0.3
	c0,0-0.1,0-0.1,0V41.9z M70.1,75.6c-0.1,2.7-2.4,4.9-5.2,4.9c0-0.3,0-0.6,0.1-0.9c0.4-2.4,2.5-4.3,5.1-4.3
	C70.1,75.4,70.1,75.5,70.1,75.6z M106.1,73.9L95.8,58.5c0-3.6,0-5.8,0-5.8c0-10.3-11.1-27.3-29.5-29.4C45.8,21,28.5,37.1,28.5,57.1
	c0,6.7,1.9,13.1,5.6,18.7c6.4,9.7,10,21.6,10,33.5c0,1.4,1.2,2.6,2.6,2.6l26,0c0.7,0,1.4-0.3,1.8-0.8c0.5-0.5,0.8-1.1,0.8-1.8
	c0-4.3,3.6-8,7.8-8h10.4c1.4,0,2.6-1.2,2.6-2.6v-13c0-4.3,3.5-7.8,7.8-7.8c1,0,1.8-0.5,2.3-1.4C106.7,75.7,106.6,74.7,106.1,73.9z
	 M91.7,86.3v10.8h-8.1c-6.6,0-12,4.9-13.2,11l-21.9,0c-0.5-12.3-4.2-24.5-11.2-35c-3.2-4.9-4.9-10.5-4.9-16.4
	c0-17.3,14.9-31.7,33.1-29.6c13.2,1.5,24,12.1,25.8,25.3V59c0,0.5,0.2,1,0.5,1.5l8.9,13.2C95.5,75.5,91.7,80.5,91.7,86.3z
	 M79.4,39.1c-5.1-3.4-11.7-3.7-17.1-0.9c-5.4-2.8-11.9-2.6-17,0.9c-0.7,0.5-1.2,1.3-1.2,2.2v21c0,1,0.5,1.9,1.4,2.3
	c0.2,0.1,0.4,0.2,0.6,0.2c0.7,0.2,1.5,0.1,2.1-0.4c3.3-2.2,7.4-2.5,11-1c0.1,0,0.2,0.1,0.3,0.2c0.1,0,0.2,0.1,0.3,0.1v7.7
	c-0.1,0-0.2-0.1-0.3-0.2c-1.5-0.8-3.1-1.3-4.9-1.3h-2.6c-0.2,0-0.5,0-0.7,0.1c-1.1,0.3-1.9,1.3-1.9,2.5v2.6
	c0,5.7,4.7,10.4,10.4,10.4h5.2c5.7,0,10.4-4.7,10.4-10.4v-2.6c0-1-0.5-1.8-1.4-2.3c0,0,0,0,0,0c-0.4-0.2-0.8-0.3-1.2-0.3h-2.6
	c-1.9,0-3.7,0.5-5.2,1.4v-7.7c3.7-1.9,8.1-1.6,11.6,0.7c0.7,0.4,1.5,0.6,2.2,0.3c0.2,0,0.3-0.1,0.5-0.2c0.8-0.4,1.4-1.3,1.4-2.3v-21
	C80.5,40.4,80.1,39.6,79.4,39.1z M59.4,80.5c-2.6-0.1-4.7-2.3-4.9-4.9c0-0.1,0-0.2,0-0.3c2.9,0,5.2,2.3,5.2,5.2
	C59.6,80.5,59.5,80.5,59.4,80.5z M59.7,58.2c-3.4-1.1-7-1.1-10.4,0v-0.5c-0.2,0.1-0.4,0.1-0.6,0.2V41.9c3.4-1.7,7.4-1.7,10.8,0v0.7
	c0.1,0,0.2,0.1,0.3,0.1V58.2z M64.8,41.9c3.4-1.7,7.4-1.7,10.8,0v15.9c-0.1,0-0.2-0.1-0.3-0.1v0.4c-3.4-1.1-7-1.1-10.4,0v-0.3
	c0,0-0.1,0-0.1,0V41.9z M70.1,75.6c-0.1,2.7-2.4,4.9-5.2,4.9c0-0.3,0-0.6,0.1-0.9c0.4-2.4,2.5-4.3,5.1-4.3
	C70.1,75.4,70.1,75.5,70.1,75.6z M79.4,39.1c-5.1-3.4-11.7-3.7-17.1-0.9c-5.4-2.8-11.9-2.6-17,0.9c-0.7,0.5-1.2,1.3-1.2,2.2v21
	c0,1,0.5,1.9,1.4,2.3c0.2,0.1,0.4,0.2,0.6,0.2c0.7,0.2,1.5,0.1,2.1-0.4c3.3-2.2,7.4-2.5,11-1c0.1,0,0.2,0.1,0.3,0.2
	c0.1,0,0.2,0.1,0.3,0.1v7.7c-0.1,0-0.2-0.1-0.3-0.2c-1.5-0.8-3.1-1.3-4.9-1.3h-2.6c-0.2,0-0.5,0-0.7,0.1c-1.1,0.3-1.9,1.3-1.9,2.5
	v2.6c0,5.7,4.7,10.4,10.4,10.4h5.2c5.7,0,10.4-4.7,10.4-10.4v-2.6c0-1-0.5-1.8-1.4-2.3c0,0,0,0,0,0c-0.4-0.2-0.8-0.3-1.2-0.3h-2.6
	c-1.9,0-3.7,0.5-5.2,1.4v-7.7c3.7-1.9,8.1-1.6,11.6,0.7c0.7,0.4,1.5,0.6,2.2,0.3c0.2,0,0.3-0.1,0.5-0.2c0.8-0.4,1.4-1.3,1.4-2.3v-21
	C80.5,40.4,80.1,39.6,79.4,39.1z M59.4,80.5c-2.6-0.1-4.7-2.3-4.9-4.9c0-0.1,0-0.2,0-0.3c2.9,0,5.2,2.3,5.2,5.2
	C59.6,80.5,59.5,80.5,59.4,80.5z M59.7,58.2c-3.4-1.1-7-1.1-10.4,0v-0.5c-0.2,0.1-0.4,0.1-0.6,0.2V41.9c3.4-1.7,7.4-1.7,10.8,0v0.7
	c0.1,0,0.2,0.1,0.3,0.1V58.2z M64.8,41.9c3.4-1.7,7.4-1.7,10.8,0v15.9c-0.1,0-0.2-0.1-0.3-0.1v0.4c-3.4-1.1-7-1.1-10.4,0v-0.3
	c0,0-0.1,0-0.1,0V41.9z M70.1,75.6c-0.1,2.7-2.4,4.9-5.2,4.9c0-0.3,0-0.6,0.1-0.9c0.4-2.4,2.5-4.3,5.1-4.3
	C70.1,75.4,70.1,75.5,70.1,75.6z M79.4,39.1c-5.1-3.4-11.7-3.7-17.1-0.9c-5.4-2.8-11.9-2.6-17,0.9c-0.7,0.5-1.2,1.3-1.2,2.2v21
	c0,1,0.5,1.9,1.4,2.3c0.2,0.1,0.4,0.2,0.6,0.2c0.7,0.2,1.5,0.1,2.1-0.4c3.3-2.2,7.4-2.5,11-1c0.1,0,0.2,0.1,0.3,0.2
	c0.1,0,0.2,0.1,0.3,0.1v7.7c-0.1,0-0.2-0.1-0.3-0.2c-1.5-0.8-3.1-1.3-4.9-1.3h-2.6c-0.2,0-0.5,0-0.7,0.1c-1.1,0.3-1.9,1.3-1.9,2.5
	v2.6c0,5.7,4.7,10.4,10.4,10.4h5.2c5.7,0,10.4-4.7,10.4-10.4v-2.6c0-1-0.5-1.8-1.4-2.3c0,0,0,0,0,0c-0.4-0.2-0.8-0.3-1.2-0.3h-2.6
	c-1.9,0-3.7,0.5-5.2,1.4v-7.7c3.7-1.9,8.1-1.6,11.6,0.7c0.7,0.4,1.5,0.6,2.2,0.3c0.2,0,0.3-0.1,0.5-0.2c0.8-0.4,1.4-1.3,1.4-2.3v-21
	C80.5,40.4,80.1,39.6,79.4,39.1z M59.4,80.5c-2.6-0.1-4.7-2.3-4.9-4.9c0-0.1,0-0.2,0-0.3c2.9,0,5.2,2.3,5.2,5.2
	C59.6,80.5,59.5,80.5,59.4,80.5z M59.7,58.2c-3.4-1.1-7-1.1-10.4,0v-0.5c-0.2,0.1-0.4,0.1-0.6,0.2V41.9c3.4-1.7,7.4-1.7,10.8,0v0.7
	c0.1,0,0.2,0.1,0.3,0.1V58.2z M64.8,41.9c3.4-1.7,7.4-1.7,10.8,0v15.9c-0.1,0-0.2-0.1-0.3-0.1v0.4c-3.4-1.1-7-1.1-10.4,0v-0.3
	c0,0-0.1,0-0.1,0V41.9z M70.1,75.6c-0.1,2.7-2.4,4.9-5.2,4.9c0-0.3,0-0.6,0.1-0.9c0.4-2.4,2.5-4.3,5.1-4.3
	C70.1,75.4,70.1,75.5,70.1,75.6z M79.4,39.1c-5.1-3.4-11.7-3.7-17.1-0.9c-5.4-2.8-11.9-2.6-17,0.9c-0.7,0.5-1.2,1.3-1.2,2.2v21
	c0,1,0.5,1.9,1.4,2.3c0.2,0.1,0.4,0.2,0.6,0.2c0.7,0.2,1.5,0.1,2.1-0.4c3.3-2.2,7.4-2.5,11-1c0.1,0,0.2,0.1,0.3,0.2
	c0.1,0,0.2,0.1,0.3,0.1v7.7c-0.1,0-0.2-0.1-0.3-0.2c-1.5-0.8-3.1-1.3-4.9-1.3h-2.6c-0.2,0-0.5,0-0.7,0.1c-1.1,0.3-1.9,1.3-1.9,2.5
	v2.6c0,5.7,4.7,10.4,10.4,10.4h5.2c5.7,0,10.4-4.7,10.4-10.4v-2.6c0-1-0.5-1.8-1.4-2.3c0,0,0,0,0,0c-0.4-0.2-0.8-0.3-1.2-0.3h-2.6
	c-1.9,0-3.7,0.5-5.2,1.4v-7.7c3.7-1.9,8.1-1.6,11.6,0.7c0.7,0.4,1.5,0.6,2.2,0.3c0.2,0,0.3-0.1,0.5-0.2c0.8-0.4,1.4-1.3,1.4-2.3v-21
	C80.5,40.4,80.1,39.6,79.4,39.1z M59.4,80.5c-2.6-0.1-4.7-2.3-4.9-4.9c0-0.1,0-0.2,0-0.3c2.9,0,5.2,2.3,5.2,5.2
	C59.6,80.5,59.5,80.5,59.4,80.5z M59.7,58.2c-3.4-1.1-7-1.1-10.4,0v-0.5c-0.2,0.1-0.4,0.1-0.6,0.2V41.9c3.4-1.7,7.4-1.7,10.8,0v0.7
	c0.1,0,0.2,0.1,0.3,0.1V58.2z M64.8,41.9c3.4-1.7,7.4-1.7,10.8,0v15.9c-0.1,0-0.2-0.1-0.3-0.1v0.4c-3.4-1.1-7-1.1-10.4,0v-0.3
	c0,0-0.1,0-0.1,0V41.9z M70.1,75.6c-0.1,2.7-2.4,4.9-5.2,4.9c0-0.3,0-0.6,0.1-0.9c0.4-2.4,2.5-4.3,5.1-4.3
	C70.1,75.4,70.1,75.5,70.1,75.6z M79.4,39.1c-5.1-3.4-11.7-3.7-17.1-0.9c-5.4-2.8-11.9-2.6-17,0.9c-0.7,0.5-1.2,1.3-1.2,2.2v21
	c0,1,0.5,1.9,1.4,2.3c0.2,0.1,0.4,0.2,0.6,0.2c0.7,0.2,1.5,0.1,2.1-0.4c3.3-2.2,7.4-2.5,11-1c0.1,0,0.2,0.1,0.3,0.2
	c0.1,0,0.2,0.1,0.3,0.1v7.7c-0.1,0-0.2-0.1-0.3-0.2c-1.5-0.8-3.1-1.3-4.9-1.3h-2.6c-0.2,0-0.5,0-0.7,0.1c-1.1,0.3-1.9,1.3-1.9,2.5
	v2.6c0,5.7,4.7,10.4,10.4,10.4h5.2c5.7,0,10.4-4.7,10.4-10.4v-2.6c0-1-0.5-1.8-1.4-2.3c0,0,0,0,0,0c-0.4-0.2-0.8-0.3-1.2-0.3h-2.6
	c-1.9,0-3.7,0.5-5.2,1.4v-7.7c3.7-1.9,8.1-1.6,11.6,0.7c0.7,0.4,1.5,0.6,2.2,0.3c0.2,0,0.3-0.1,0.5-0.2c0.8-0.4,1.4-1.3,1.4-2.3v-21
	C80.5,40.4,80.1,39.6,79.4,39.1z M59.4,80.5c-2.6-0.1-4.7-2.3-4.9-4.9c0-0.1,0-0.2,0-0.3c2.9,0,5.2,2.3,5.2,5.2
	C59.6,80.5,59.5,80.5,59.4,80.5z M59.7,58.2c-3.4-1.1-7-1.1-10.4,0v-0.5c-0.2,0.1-0.4,0.1-0.6,0.2V41.9c3.4-1.7,7.4-1.7,10.8,0v0.7
	c0.1,0,0.2,0.1,0.3,0.1V58.2z M64.8,41.9c3.4-1.7,7.4-1.7,10.8,0v15.9c-0.1,0-0.2-0.1-0.3-0.1v0.4c-3.4-1.1-7-1.1-10.4,0v-0.3
	c0,0-0.1,0-0.1,0V41.9z M70.1,75.6c-0.1,2.7-2.4,4.9-5.2,4.9c0-0.3,0-0.6,0.1-0.9c0.4-2.4,2.5-4.3,5.1-4.3
	C70.1,75.4,70.1,75.5,70.1,75.6z M79.4,39.1c-5.1-3.4-11.7-3.7-17.1-0.9c-5.4-2.8-11.9-2.6-17,0.9c-0.7,0.5-1.2,1.3-1.2,2.2v21
	c0,1,0.5,1.9,1.4,2.3c0.2,0.1,0.4,0.2,0.6,0.2c0.7,0.2,1.5,0.1,2.1-0.4c3.3-2.2,7.4-2.5,11-1c0.1,0,0.2,0.1,0.3,0.2
	c0.1,0,0.2,0.1,0.3,0.1v7.7c-0.1,0-0.2-0.1-0.3-0.2c-1.5-0.8-3.1-1.3-4.9-1.3h-2.6c-0.2,0-0.5,0-0.7,0.1c-1.1,0.3-1.9,1.3-1.9,2.5
	v2.6c0,5.7,4.7,10.4,10.4,10.4h5.2c5.7,0,10.4-4.7,10.4-10.4v-2.6c0-1-0.5-1.8-1.4-2.3c0,0,0,0,0,0c-0.4-0.2-0.8-0.3-1.2-0.3h-2.6
	c-1.9,0-3.7,0.5-5.2,1.4v-7.7c3.7-1.9,8.1-1.6,11.6,0.7c0.7,0.4,1.5,0.6,2.2,0.3c0.2,0,0.3-0.1,0.5-0.2c0.8-0.4,1.4-1.3,1.4-2.3v-21
	C80.5,40.4,80.1,39.6,79.4,39.1z M59.4,80.5c-2.6-0.1-4.7-2.3-4.9-4.9c0-0.1,0-0.2,0-0.3c2.9,0,5.2,2.3,5.2,5.2
	C59.6,80.5,59.5,80.5,59.4,80.5z M59.7,58.2c-3.4-1.1-7-1.1-10.4,0v-0.5c-0.2,0.1-0.4,0.1-0.6,0.2V41.9c3.4-1.7,7.4-1.7,10.8,0v0.7
	c0.1,0,0.2,0.1,0.3,0.1V58.2z M64.8,41.9c3.4-1.7,7.4-1.7,10.8,0v15.9c-0.1,0-0.2-0.1-0.3-0.1v0.4c-3.4-1.1-7-1.1-10.4,0v-0.3
	c0,0-0.1,0-0.1,0V41.9z M70.1,75.6c-0.1,2.7-2.4,4.9-5.2,4.9c0-0.3,0-0.6,0.1-0.9c0.4-2.4,2.5-4.3,5.1-4.3
	C70.1,75.4,70.1,75.5,70.1,75.6z M79.4,39.1c-5.1-3.4-11.7-3.7-17.1-0.9c-5.4-2.8-11.9-2.6-17,0.9c-0.7,0.5-1.2,1.3-1.2,2.2v21
	c0,1,0.5,1.9,1.4,2.3c0.2,0.1,0.4,0.2,0.6,0.2c0.7,0.2,1.5,0.1,2.1-0.4c3.3-2.2,7.4-2.5,11-1c0.1,0,0.2,0.1,0.3,0.2
	c0.1,0,0.2,0.1,0.3,0.1v7.7c-0.1,0-0.2-0.1-0.3-0.2c-1.5-0.8-3.1-1.3-4.9-1.3h-2.6c-0.2,0-0.5,0-0.7,0.1c-1.1,0.3-1.9,1.3-1.9,2.5
	v2.6c0,5.7,4.7,10.4,10.4,10.4h5.2c5.7,0,10.4-4.7,10.4-10.4v-2.6c0-1-0.5-1.8-1.4-2.3c0,0,0,0,0,0c-0.4-0.2-0.8-0.3-1.2-0.3h-2.6
	c-1.9,0-3.7,0.5-5.2,1.4v-7.7c3.7-1.9,8.1-1.6,11.6,0.7c0.7,0.4,1.5,0.6,2.2,0.3c0.2,0,0.3-0.1,0.5-0.2c0.8-0.4,1.4-1.3,1.4-2.3v-21
	C80.5,40.4,80.1,39.6,79.4,39.1z M59.4,80.5c-2.6-0.1-4.7-2.3-4.9-4.9c0-0.1,0-0.2,0-0.3c2.9,0,5.2,2.3,5.2,5.2
	C59.6,80.5,59.5,80.5,59.4,80.5z M59.7,58.2c-3.4-1.1-7-1.1-10.4,0v-0.5c-0.2,0.1-0.4,0.1-0.6,0.2V41.9c3.4-1.7,7.4-1.7,10.8,0v0.7
	c0.1,0,0.2,0.1,0.3,0.1V58.2z M64.8,41.9c3.4-1.7,7.4-1.7,10.8,0v15.9c-0.1,0-0.2-0.1-0.3-0.1v0.4c-3.4-1.1-7-1.1-10.4,0v-0.3
	c0,0-0.1,0-0.1,0V41.9z M70.1,75.6c-0.1,2.7-2.4,4.9-5.2,4.9c0-0.3,0-0.6,0.1-0.9c0.4-2.4,2.5-4.3,5.1-4.3
	C70.1,75.4,70.1,75.5,70.1,75.6z"/>
</svg>
