<?xml version="1.0" encoding="utf-8"?>
<!-- Generator: Adobe Illustrator 17.1.0, SVG Export Plug-In . SVG Version: 6.00 Build 0)  -->
<!DOCTYPE svg PUBLIC "-//W3C//DTD SVG 1.1//EN" "http://www.w3.org/Graphics/SVG/1.1/DTD/svg11.dtd">
<svg version="1.1" id="Layer_1" xmlns="http://www.w3.org/2000/svg" xmlns:xlink="http://www.w3.org/1999/xlink" x="0px" y="0px"
	 viewBox="0 0 135 135" enable-background="new 0 0 135 135" xml:space="preserve">
<g>
	<circle fill="none" stroke="#C5B08F" stroke-width="4" stroke-miterlimit="10" cx="67.5" cy="68" r="64.5"/>
	<g>
		<path fill="#C5B08F" d="M84.1,75.1c-0.6,0-1.2-0.2-1.6-0.7c-0.1-0.1-0.2-0.2-0.3-0.3c-0.1-0.1-0.1-0.3-0.2-0.4s-0.1-0.3-0.1-0.4
			s0-0.3,0-0.4s0-0.3,0-0.4s0.1-0.3,0.1-0.4c0.1-0.1,0.1-0.3,0.2-0.4s0.2-0.2,0.3-0.3c0.4-0.4,1-0.7,1.6-0.7s1.2,0.2,1.6,0.7
			c0.1,0.1,0.2,0.2,0.3,0.3c0.1,0.1,0.2,0.3,0.2,0.4c0.1,0.1,0.1,0.3,0.1,0.4s0,0.3,0,0.4s0,0.3,0,0.4s-0.1,0.3-0.1,0.4
			c-0.1,0.1-0.1,0.3-0.2,0.4s-0.2,0.2-0.3,0.3C85.2,74.8,84.6,75.1,84.1,75.1z"/>
		<path fill="#C5B08F" d="M124.6,68.9c-0.2-0.2-5.9-4.3-14.4-6.6c0.8-9.7-0.8-18-1-18.6c-0.2-1-1.1-1.8-2.2-1.8
			c-0.5,0-10.8-0.2-21,4.5c-1.7-4-4.1-8-7.1-11.9c-4.9-6.3-9.8-10.2-10-10.4c-0.8-0.7-2-0.7-2.8,0c-0.2,0.2-5.1,4.1-10,10.4
			c-3.1,3.9-5.5,7.9-7.1,11.9c-10.2-4.7-20.5-4.5-21-4.5c-1.1,0-1.9,0.8-2.2,1.8c-0.1,0.6-1.8,8.9-0.9,18.7
			c-8.3,2.2-14.1,6.2-14.4,6.4c-1,0.7-1.3,2-0.7,3c0.3,0.6,6.1,10.3,15.7,17.3c-1.6,2-2.4,4.1-2.4,6.5c0,8.7,11.7,15.5,26.6,15.5
			c7,0,13.2-1.3,17.9-3.8c4.7,2.4,10.8,3.8,17.7,3.8c14.9,0,26.6-6.8,26.6-15.5c0-2.3-0.8-4.4-2.5-6.5c9.7-7.1,15.5-16.8,15.8-17.4
			C125.8,70.9,125.5,69.6,124.6,68.9z M67.5,29c4.3,3.9,17,16.5,17,31.1c0,0.8,0,1.5-0.1,2.3c-0.1,1.2,0.8,2.3,2.1,2.5
			c1.2,0.1,2.3-0.8,2.5-2.1c0.1-0.9,0.1-1.8,0.1-2.7c0-3.1-0.5-6.2-1.4-9.4c6.9-3.3,14.1-4.1,17.4-4.2c0.8,5.7,2.5,23-5.5,33.9
			c-6.8,9.2-20,11.7-27.1,12.4c2.4-2.3,5.6-5.7,8.6-10c0.7-1,0.5-2.4-0.6-3.2c-1-0.7-2.4-0.5-3.2,0.6c-2.6,3.7-5.4,6.8-7.5,8.9V55.7
			c0-1.3-1-2.3-2.3-2.3s-2.3,1-2.3,2.3v33.5c-5.4-5.3-14.8-16.4-14.8-29C50.5,45.5,63.2,32.9,67.5,29z M29.9,46.5
			c3.3,0.2,10.5,0.9,17.4,4.2c-1,3.2-1.4,6.3-1.4,9.4c0,8.2,3.5,17,10.1,25.5c2.3,3,4.7,5.4,6.5,7.2c-7.1-0.7-20.3-3.1-27.1-12.4
			C27.4,69.5,29.1,52.2,29.9,46.5z M14.9,71.5c2.1-1.2,5.9-3.1,10.5-4.4c0.9,5.6,2.8,11.3,6.4,16.1c2.7,3.7,6.2,6.4,10,8.5
			c-0.9-0.2-1.7-0.3-2.6-0.6C27.1,87.8,18.1,76.1,14.9,71.5z M49.7,106.7c-6.1,0-11.8-1.3-16.1-3.6c-3.8-2.1-5.9-4.7-5.9-7.4
			c0-1.5,0.5-2.8,1.6-4c2.7,1.6,5.6,2.9,8.7,3.7c2.8,0.8,5.7,1.1,8.7,1.1c2.2,0,4.4-0.2,6.7-0.6c1.9,0.4,3.7,0.8,5.3,1
			c0.4,2.8,1.9,5.3,4.4,7.5C59.5,105.9,54.9,106.7,49.7,106.7z M107.3,95.8c0,2.6-2.2,5.3-5.9,7.4c-4.3,2.3-10,3.6-16.1,3.6
			s-11.8-1.3-16.1-3.6c-2.9-1.6-4.9-3.6-5.6-5.6c1.6,0.1,2.8,0.1,3.4,0.1c0.2,0,0.4,0,0.5,0s0.3,0,0.5,0c1.8,0,7.2-0.1,13.5-1.6
			c2.3,0.4,4.5,0.6,6.7,0.6c3,0,5.9-0.4,8.7-1.1c3-0.8,5.9-2.1,8.5-3.6C106.7,93.1,107.3,94.4,107.3,95.8z M95.8,91.1
			c-0.8,0.2-1.7,0.4-2.6,0.6c3.7-2.1,7.3-4.8,10-8.5c3.6-4.8,5.5-10.6,6.4-16.3c4.7,1.3,8.4,3.3,10.5,4.5C117,76,108,87.8,95.8,91.1
			z"/>
	</g>
</g>
</svg>
