<?xml version="1.0" encoding="utf-8"?>
<!-- Generator: Adobe Illustrator 17.1.0, SVG Export Plug-In . SVG Version: 6.00 Build 0)  -->
<!DOCTYPE svg PUBLIC "-//W3C//DTD SVG 1.1//EN" "http://www.w3.org/Graphics/SVG/1.1/DTD/svg11.dtd">
<svg version="1.1" id="Layer_1" xmlns="http://www.w3.org/2000/svg" xmlns:xlink="http://www.w3.org/1999/xlink" x="0px" y="0px"
	 viewBox="0 0 792 612" enable-background="new 0 0 792 612" xml:space="preserve">
<g>
	<path fill="#F1D8B1" d="M334.8,310.5c11.4,0,22.6,1.7,33.4,4.9c-2.8-4.8-4.4-10.3-4.4-16.2c0-12.1,6.7-22.7,16.7-28.2
		c4.6-2.5,9.9-4,15.5-4c4.9,0,9.5,1.1,13.7,3.1c10.9,5.2,18.5,16.3,18.5,29.1c0,6.2-1.7,11.9-4.8,16.8c10.9-3.4,22.2-5.3,33.8-5.5
		c13.9-15.7,24.8-34,32.2-54.3c7.6-21,11-42.8,10.2-64.4c-0.1-2.8-0.3-5.6-0.5-8.4c-1.6-18.2-6.2-36.2-13.8-53.4
		c-19,9.3-35.8,21.9-49.8,37.1c-2,2.2-3.9,4.4-5.8,6.6c-12.3,14.8-22,31.7-28.8,50.3c-0.2,0.6-0.4,1.2-0.6,1.8
		c-1.6,4.5-3,9.1-4.2,13.8c-1.2-4.6-2.6-9.2-4.2-13.8c-0.2-0.6-0.4-1.2-0.6-1.8c-6.8-18.6-16.5-35.5-28.8-50.3
		c-1.9-2.3-3.8-4.5-5.8-6.6c-14-15.1-30.8-27.7-49.8-37.1c-7.6,17.2-12.2,35.2-13.8,53.4c-0.3,2.8-0.4,5.6-0.5,8.4
		c-0.8,21.6,2.5,43.5,10.2,64.4C310,276.5,320.9,294.8,334.8,310.5z"/>
	<path fill="#F1D8B1" d="M426,165.7c-7.6-15.5-17.7-29.9-30-42.7c-12.3,12.8-22.4,27.2-30,42.7c12.5,14.4,22.6,30.8,30,48.8
		C403.4,196.5,413.5,180.1,426,165.7z"/>
	<path fill="#F1D8B1" d="M295.1,259c-8.3-22.9-11.8-46.7-10.5-70.4c-22.5-8.5-46.7-12.2-71.3-10.5c4.7,43.7,25.7,83.1,59.5,111.4
		c11.4,9.5,23.7,17.4,36.8,23.6c1.5-0.3,2.9-0.6,4.4-0.9c1.3-0.2,2.5-0.4,3.7-0.6c2.3-0.3,4.6-0.6,6.9-0.8
		C312.1,295.6,302.1,278.2,295.1,259z"/>
	<path fill="#F1D8B1" d="M507.4,188.6c1.3,23.6-2.2,47.5-10.5,70.4c-7,19.1-16.9,36.5-29.4,51.8c2.1,0.1,4.2,0.3,6.4,0.6
		c3.3,0.4,6.3,0.9,9.2,1.4c12.9-6.1,25-13.9,36.2-23.3c33.7-28.3,54.8-67.8,59.5-111.4C554.1,176.5,529.9,180.1,507.4,188.6z"/>
	<g>
		<path fill="#CFB28D" d="M396,275c-13.4,0-24.2,10.9-24.2,24.2c0,13.4,10.9,24.2,24.2,24.2c13.4,0,24.2-10.9,24.2-24.2
			C420.2,285.9,409.4,275,396,275z"/>
		<path fill="#CFB28D" d="M460.8,318.5c-0.5,0-0.9,0-1.4,0c-3.4,0-6.7,0.2-10.1,0.5c-17.9,1.6-35.1,7.5-50.3,17.4l-2.2,1.4l-2.2-1.4
			c-15.7-10.2-33.6-16.2-52.1-17.5c-2.7-0.2-5.5-0.3-8.2-0.3c-1,0-2.1,0-3.1,0.1c-2.5,0.1-5,0.2-7.6,0.5c-1.6,0.2-3.2,0.3-4.9,0.6
			c0,0,0,0,0,0l0.5,0.4l13.6,10.4l15.1,11.5l36.1,27.6c3,2.3,7.1,3.6,11.5,3.6c4.4,0,8.5-1.3,11.5-3.6l41.8-31.9l9-6.9l14.9-11.4
			c-1.4-0.2-2.8-0.3-4.2-0.4C466,318.6,463.4,318.5,460.8,318.5z"/>
	</g>
	<g>
		<g>
			<path fill="#CFB28D" d="M110.7,401.7c3.4-12.1,3.6-16.9,3.6-16.9s2.2-1,5.4-1c5.8,0,7.8,1.9,8.1,8.9l2,46.9l20.9-43.7
				c3.1-6.3,3.7-9,4.1-11.2c0,0,1.5-1,5.4-1c7.1,0,8.4,3.2,7.2,10.4l-7.8,45c-1,5.5,1.1,7.9,4.3,7.9c4.7,0,8.7-5.6,10-8.3
				c1.4,0,2,1,1.8,2.5c-0.9,5.8-8.5,14.1-17.3,14.1c-6.8,0-11.5-4.6-11.5-11.9c0-4.4,0.5-8.2,1.3-13.3l4.9-27.8l-20,42.2
				c-2.5,5.3-3.2,9.4-3.2,9.4s-2.2,1.4-6,1.4c-5.2,0-6.2-3.7-6.5-9.7l-1.9-43.7l-9.5,35.1c-3.6,13.6-8.3,18.3-14.6,18.3
				c-4.3,0-7.1-3-7.1-7.4c0-3.3,1.3-4.8,1.3-4.8s1.1,0.8,3.3,0.8c6.2,0,10.4-4,15.5-21.6L110.7,401.7z"/>
			<path fill="#CFB28D" d="M213.2,438.8c-1.1,5.7,0.7,8.4,4.1,8.4c3.2,0,7.6-3.2,10-8.3c1.2,0,2.1,0.8,1.8,2.5
				c-1,5.1-7.8,14.1-17.1,14.1c-6.3,0-10.7-3.9-11.2-10.8c-3.9,7.1-9.2,10.8-14.6,10.8c-7.8,0-14.1-5.3-14.1-16.4
				c0-21.3,12.4-31.4,23.6-31.4c4.8,0,8.1,1.9,10.3,4.7c1.5-3.4,3.9-4.7,8.6-4.7c3.2,0,4.8,1,4.8,1s-1.2,1.7-2.2,6.9L213.2,438.8z
				 M203.7,423.3l0.9-4.5c-0.9-1.9-2.7-4.6-6.3-4.6c-6.5,0-13.9,9.7-13.9,25c0,5.4,2.1,7.9,5.6,7.9
				C196.8,447.2,201.9,432.9,203.7,423.3z"/>
			<path fill="#CFB28D" d="M242.9,419c4-7.3,9.4-11.2,15.4-11.2c8.9,0,13.8,6.3,13.8,16.2c0,2.9-0.3,5.5-0.8,8
				c7.4-0.9,11.9-7.5,11.9-7.5c1.2,0,1.9,1,1.7,2.4c-0.6,3.3-6.8,8.7-14.6,9.5c-3.7,11.9-12.5,19.1-21.8,19.1
				c-4.6,0-8.4-1.8-11.1-4.7l-5.1,29.1c-1.1,6-0.1,8.2-0.1,8.2s-1.4,0.9-5,0.9c-7.4,0-8.2-2.8-7.1-9.5l10.9-62.7
				c1.1-6,0.1-8.2,0.1-8.2s1.4-0.9,5-0.9c7.4,0,8.2,2.7,7.1,9.5L242.9,419z M259.6,419.8c-0.6-3.2-2.2-4.7-4.7-4.7
				c-2.9,0-5.6,2.4-8.9,7.6c-2.7,4.3-5.4,9.9-7.1,18.6l-0.7,3.6c1.2,2,3.4,4.1,7.3,4.1c5.3,0,10.4-6.1,12.8-15.2
				c-2.3-1.8-3.5-4.4-3.5-7.6C254.8,423.2,256.5,420.5,259.6,419.8z"/>
			<path fill="#CFB28D" d="M307.9,440.4c-1.3,2.7-2.8,5.1-4.3,7.1c-4,5.4-8.2,8.1-13.5,8.1c-6.4,0-10.4-4.5-10.4-11.1
				c0-3.5,0.3-6.8,1.1-11.8l2.8-15.9c1.1-6,0.1-8.2,0.1-8.2s1.4-0.9,5-0.9c7.4,0,8.2,2.8,7.1,9.5l-3.8,22.1c-1,5.4,0.4,7.9,3.2,7.9
				c2.1,0,4.6-2.6,7.1-6.4c4.1-6.2,8.2-16.4,9.7-24.9c0.9-5.3,0-7.3,0-7.3s1.4-0.9,5-0.9c7.4,0,8.2,2.8,7.1,9.5l-3.7,21.6
				c-1,5.7,0.7,8.4,4.1,8.4c3.2,0,7.6-3.2,10-8.3c1.2,0,2.1,0.8,1.8,2.5c-1,5.1-7.8,14.1-17.1,14.1c-6.6,0-11.2-4.3-11.2-11.9
				C307.8,442.8,307.8,441.7,307.9,440.4z"/>
			<path fill="#CFB28D" d="M388,438.9c1.2,0,2.1,0.8,1.8,2.5c-1,5.1-7.8,14.1-17.1,14.1c-6.6,0-11.2-4.3-11.2-11.9
				c0-1.9,0.2-5.1,0.9-9.1H347l-2,11.9c-1.1,6-0.1,8.2-0.1,8.2s-1.4,0.9-5,0.9c-7.4,0-8.2-2.8-7.1-9.5l5.1-29.2
				c1.1-6,0.1-8.2,0.1-8.2s1.4-0.9,5-0.9c7.4,0,8.2,2.8,7.1,9.5l-2.2,12.5h15.3l2.3-12.9c1.1-6,0.1-8.2,0.1-8.2s1.4-0.9,5-0.9
				c7.4,0,8.2,2.8,7.1,9.5l-3.7,21.6c-1,5.6,0.7,8.4,4.1,8.4C381.2,447.2,385.5,444.1,388,438.9z"/>
			<path fill="#CFB28D" d="M427.1,438.4c-1.2,6.8,0.4,8.9,2.9,8.9c2.8,0,3.6-2.7,3.6-2.7c1.3,0,2,1.1,1.8,2.8
				c-0.4,3.8-4.9,8.2-11.1,8.2c-4.9,0-9.5-3.7-9.7-10.7c-4,7-9.2,10.7-14.6,10.7c-7.8,0-14.1-5.3-14.1-16.4
				c0-21.3,12.4-31.4,23.6-31.4c4.8,0,8.1,1.9,10.3,4.7c1.5-3.4,3.9-4.7,8.6-4.7c3.2,0,4.8,1,4.8,1s-1.2,1.7-2.2,6.9L427.1,438.4z
				 M417.6,423.3l0.9-4.5c-0.9-1.9-2.7-4.6-6.3-4.6c-6.5,0-13.9,9.7-13.9,25c0,5.4,2.1,7.9,5.6,7.9
				C410.7,447.2,415.8,432.9,417.6,423.3z"/>
			<path fill="#CFB28D" d="M564.6,441.4c-0.9,5.8-8.5,14.1-17.3,14.1c-6.8,0-11.5-4.6-11.5-11.9v-3.1c-4.6,9.8-10.3,14.9-17.3,14.9
				c-6.9,0-11.4-4.8-11.4-11.9v-2.5c-4.5,9.5-10.2,14.3-17.1,14.3c-6.9,0-11.4-4.8-11.4-11.9c0-3.8,0.4-6.7,1-10.1l7-39.8
				c0.4-1.9,0.5-3.4,0.5-4.7h-1c-8.7,0-13,4.9-13,10.3c0,2.7,1.4,4.4,3.8,4.4c1.1,0,1.6-0.3,1.6-0.3s0.1,0.3,0.1,0.9
				c0,2.3-2.4,5.4-7.3,5.4c-6.2,0-10-3.8-10-9.6c0-9.5,8.7-16.3,24.1-16.3h6.7c7.1,0,8.5,3.1,7.2,10.4l-7.7,44c-1.2,6.9,0.2,9,2.8,9
				c2.4,0,5.2-2.2,8.5-9c3.7-7.6,7.6-19.1,12.2-44.4c1.1-6.6,0.1-9,0.1-9s1.5-1,5.4-1c7.1,0,8.5,3.1,7.2,10.4l-7.7,44
				c-1.2,7.1,0.2,9,2.8,9c2.4,0,5.2-2.2,8.5-9c3.8-7.7,7.7-19.6,12.2-44.4c1.1-6.6,0.1-9,0.1-9s1.5-1,5.4-1c7.1,0,8.4,3.1,7.2,10.4
				l-7.8,45c-1,5.5,1.1,7.9,4.3,7.9c4.7,0,8.7-5.6,10-8.3C564.2,438.9,564.8,439.9,564.6,441.4z"/>
			<path fill="#CFB28D" d="M560.8,434.9c0-16.9,12.9-27.1,25.6-27.1c9.7,0,13.7,5.1,13.7,9.9c0,8.7-10,14.4-26.9,17.6
				c0.6,7.2,5.5,12.7,13.7,12.7c10.2,0,16.1-5.1,18.6-9.1c1.2,0,1.9,0.8,1.5,2.5c-0.9,4.2-10,14.1-24.7,14.1
				C569.9,455.6,560.8,447.8,560.8,434.9z M573.4,430.8c11.7-2.8,16.5-8.6,16.5-14.9c0-2-1.3-3.3-3.3-3.3
				C581.1,412.5,574.4,418.9,573.4,430.8z"/>
			<path fill="#CFB28D" d="M633.1,440.4c-1.3,2.7-2.8,5.1-4.3,7.1c-4,5.4-8.2,8.1-13.5,8.1c-6.4,0-10.4-4.5-10.4-11.1
				c0-3.5,0.3-6.8,1.1-11.8l2.8-15.9c1.1-6,0.1-8.2,0.1-8.2s1.4-0.9,5-0.9c7.4,0,8.2,2.8,7.1,9.5l-3.8,22.1c-1,5.4,0.4,7.9,3.2,7.9
				c2.1,0,4.6-2.6,7.1-6.4c4.1-6.2,8.2-16.4,9.7-24.9c0.9-5.3,0-7.3,0-7.3s1.4-0.9,5-0.9c7.4,0,8.2,2.8,7.1,9.5l-3.7,21.6
				c-1,5.7,0.7,8.4,4.1,8.4c3.2,0,7.6-3.2,10-8.3c1.2,0,2.1,0.8,1.8,2.5c-1,5.1-7.8,14.1-17.1,14.1c-6.6,0-11.2-4.3-11.2-11.9
				C633,442.8,633,441.7,633.1,440.4z"/>
			<path fill="#CFB28D" d="M672.2,434.5l-2,11.9c-1.1,6-0.1,8.2-0.1,8.2s-1.4,0.9-5,0.9c-7.4,0-8.2-2.8-7.1-9.5l5.1-29.2
				c1.1-6,0.1-8.2,0.1-8.2s1.4-0.9,5-0.9c7.4,0,8.2,2.8,7.1,9.5l-2.2,12.5h15.3l2.3-12.9c1.1-6,0.1-8.2,0.1-8.2s1.4-0.9,5-0.9
				c7.4,0,8.2,2.8,7.1,9.5l-3.6,21.1c-1.1,6.9,0.4,8.9,2.9,8.9c2.8,0,3.6-2.7,3.6-2.7c1.3,0,2,1.1,1.8,2.8
				c-0.4,3.9-5.3,8.2-11.1,8.2c-5,0-9.7-3.9-9.7-11.3c0-2.8,0.2-5.9,0.9-9.7H672.2z"/>
		</g>
	</g>
</g>
</svg>
