<svg xmlns="http://www.w3.org/2000/svg" xmlns:xlink="http://www.w3.org/1999/xlink" version="1.1" enable-background="new 0 0 1130 720" xml:space="preserve" width="1481" height="698"><rect id="backgroundrect" width="100%" height="100%" x="0" y="0" fill="none" stroke="none"/>

<g class="currentLayer" style=""><title>Layer 1</title><rect fill="#ffe4c7" stroke="none" stroke-width="2" stroke-linejoin="round" stroke-dashoffset="" fill-rule="nonzero" id="svg_11" x="0" y="540.0999984741211" width="1481.0103098548134" height="158.00000643730164" style="color: rgb(0, 0, 0);" class="" fill-opacity="1"/><g id="svg_1" class="">
	<path fill="#FFFFFF" d="M779.4051727294922,616.9999984741211 h-7 c3.4,-6.1 2.5,-13.9 -2.7,-19 c-6.2,-6.3 -16.3,-6.3 -22.6,0 c-0.3000000000000002,0.3000000000000002 -0.5,0.5 -0.7000000000000004,0.8 l0,0 l-6,6 l-6,-6 l0,0 c-0.2,-0.3000000000000002 -0.5,-0.5 -0.7000000000000004,-0.8 c-6.2,-6.3 -16.3,-6.3 -22.6,0 c-5.1,5.2 -6,13 -2.7,19 h-7 c-2.9,-7.9 -1.2,-17.2 5.2,-23.6 c8.7,-8.8 22.9,-8.8 31.6,0 c0.3000000000000002,0.3000000000000002 0.5,0.5 0.7000000000000004,0.8 c0.5,0.6000000000000004 1.1,1.2 1.5,1.9 c0.5,-0.7000000000000004 1,-1.3 1.5,-1.9 c0.2,-0.3000000000000002 0.5,-0.5 0.7000000000000004,-0.8 c8.7,-8.8 22.9,-8.8 31.6,0 C780.6051727294922,599.7999984741211 782.3051727294921,609.0999984741211 779.4051727294922,616.9999984741211 z" id="svg_2"/>
	<path fill="#FFFFFF" d="M1293.3051727294921,67.19999847412109 v291 c-0.6000000000000004,-23.3 -1,-46.6 -1.4,-70 c-0.4,-24.2 -0.7000000000000004,-48.4 -1,-72.5 l-0.6000000000000004,-72.5 l-0.3000000000000002,-69.3 c-8.1,-0.4 -16.1,-2.1 -23.6,-5.2 c-8.5,-3.5 -16.4,-8.7 -22.9,-15.3 c-6.5,-6.5 -11.7,-14.4 -15.3,-22.9 c-3.1,-7.5 -4.9,-15.5 -5.2,-23.6 c-1.9,0 -3.9,0 -5.8,0 H266.6051727294922 v0 c-2.8,0 -5.7,0 -8.5,0 c-0.4,8.1 -2.1,16.1 -5.2,23.6 c-3.5,8.5 -8.7,16.4 -15.3,22.9 C231.0051727294922,59.89999847412109 223.20517272949218,65.0999984741211 214.6051727294922,68.5999984741211 c-7.5,3.1 -15.6,4.9 -23.6,5.2 L190.70517272949218,143.0999984741211 l-0.6000000000000004,72.5 c-0.3000000000000002,24.2 -0.5,48.4 -1,72.5 c-0.4,24.2 -0.8,48.4 -1.4,72.5 c-0.1,-2.9 -0.1,-5.8 -0.2,-8.6 V67.19999847412109 h0.2 c8.3,0 16.7,-1.7000000000000002 24.4,-4.9 c7.7,-3.2 14.7,-7.9 20.6,-13.8 C238.5051727294922,42.599998474121094 243.3051727294922,35.49999847412109 246.5051727294922,27.799998474121097 s4.9,-16 4.9,-24.4 l0,-3.4 h978.3 l0,3.4 c0,8.3 1.7000000000000002,16.7 4.9,24.4 c3.2,7.7 7.9,14.7 13.8,20.6 c5.9,5.9 12.9,10.6 20.6,13.8 C1276.7051727294922,65.4999984741211 1285.0051727294922,67.19999847412109 1293.3051727294921,67.19999847412109 z" id="svg_3"/>
	<path fill="#FFE4C7" d="M1296.7051727294922,67.19999847412109 l0,3.4 l-0.3000000000000002,72.5 l-0.6000000000000004,72.5 c-0.3000000000000002,24.2 -0.5,48.4 -1,72.5 c-0.4,24.2 -0.8,48.4 -1.4,72.5 c0,-0.9 0,-1.7000000000000002 -0.1,-2.6 c-0.6000000000000004,-23.3 -1,-46.6 -1.4,-70 c-0.4,-24.2 -0.7000000000000004,-48.4 -1,-72.5 l-0.6000000000000004,-72.5 l-0.3000000000000002,-69.3 c-8.1,-0.4 -16.1,-2.1 -23.6,-5.2 c-8.5,-3.5 -16.4,-8.7 -22.9,-15.3 c-6.5,-6.5 -11.7,-14.4 -15.3,-22.9 c-3.1,-7.5 -4.9,-15.5 -5.2,-23.6 c-1.9,0 -3.9,0 -5.8,0 H266.6051727294922 v0 c-2.8,0 -5.7,0 -8.5,0 c-0.4,8.1 -2.1,16.1 -5.2,23.6 c-3.5,8.5 -8.7,16.4 -15.3,22.9 C231.0051727294922,59.89999847412109 223.20517272949218,65.0999984741211 214.6051727294922,68.5999984741211 c-7.5,3.1 -15.6,4.9 -23.6,5.2 L190.70517272949218,143.0999984741211 l-0.6000000000000004,72.5 c-0.3000000000000002,24.2 -0.5,48.4 -1,72.5 c-0.4,24.2 -0.8,48.4 -1.4,72.5 c-0.1,-2.9 -0.1,-5.8 -0.2,-8.6 c-0.5,-21.3 -0.9,-42.6 -1.2,-63.9 c-0.4,-24.2 -0.7000000000000004,-48.4 -1,-72.5 L184.60517272949218,143.0999984741211 L184.3051727294922,70.5999984741211 l0,-3.4 l3.2,0 h0.2 c8.3,0 16.7,-1.7000000000000002 24.4,-4.9 c7.7,-3.2 14.7,-7.9 20.6,-13.8 C238.5051727294922,42.599998474121094 243.3051727294922,35.49999847412109 246.5051727294922,27.799998474121097 s4.9,-16 4.9,-24.4 l0,-3.4 h3.4 c3.9,0 7.9,0 11.8,0 v0 h953.7 v0 c2,0 4,0 6,0 h3.4 l0,3.4 c0,8.3 1.7000000000000002,16.7 4.9,24.4 c3.2,7.7 7.9,14.7 13.8,20.6 c5.9,5.9 12.9,10.6 20.6,13.8 c7.7,3.2 16,4.9 24.3,4.9 h0.1 L1296.7051727294922,67.19999847412109 z" id="svg_4"/>
	<g id="svg_5">
		<path fill-rule="evenodd" clip-rule="evenodd" fill="#FFFFFF" d="M774.2051727294922,593.399998474121 c-8.7,-8.8 -22.9,-8.8 -31.6,0 c-0.3000000000000002,0.3000000000000002 -0.5,0.5 -0.7000000000000004,0.8 c-0.5,0.6000000000000004 -1.1,1.2 -1.5,1.9 c-0.5,-0.7000000000000004 -1,-1.3 -1.5,-1.9 c-0.2,-0.3000000000000002 -0.5,-0.5 -0.7000000000000004,-0.8 c-8.7,-8.8 -22.9,-8.8 -31.6,0 c-6.4,6.4 -8.1,15.6 -5.2,23.6 c1.1,3 2.8,5.8 5.2,8.2 c0.3000000000000002,0.3000000000000002 0.5,0.5 0.8,0.7000000000000004 l0,0 l33.1,33.2 l33.1,-33.2 l0,0 c0.3000000000000002,-0.2 0.5,-0.5 0.8,-0.7000000000000004 c2.4,-2.4 4.1,-5.2 5.2,-8.2 C782.3051727294921,609.0999984741211 780.6051727294922,599.7999984741211 774.2051727294922,593.399998474121 zM769.7051727294922,620.5999984741211 c-0.3000000000000002,0.3000000000000002 -0.5,0.5 -0.8,0.7000000000000004 l0,0 L740.4051727294922,650.0999984741211 l-28.6,-28.7 l0,0 c-0.3000000000000002,-0.2 -0.5,-0.5 -0.8,-0.7000000000000004 c-1.1,-1.1 -2,-2.3 -2.7,-3.6 c-3.4,-6.1 -2.5,-13.9 2.7,-19 c6.2,-6.3 16.3,-6.3 22.6,0 c0.3000000000000002,0.3000000000000002 0.5,0.5 0.7000000000000004,0.8 l0,0 l6,6 l6,-6 l0,0 c0.2,-0.3000000000000002 0.5,-0.5 0.7000000000000004,-0.8 c6.2,-6.3 16.4,-6.3 22.6,0 c5.1,5.2 6,13 2.7,19 C771.7051727294922,618.2999984741211 770.8051727294921,619.4999984741211 769.7051727294922,620.5999984741211 z" id="svg_6"/>
		<path fill-rule="evenodd" clip-rule="evenodd" fill="#FFFFFF" d="M1291.9051727294923,288.1999984741211 c-0.4,-24.2 -0.7000000000000004,-48.4 -1,-72.5 l-0.6000000000000004,-72.5 l-0.3000000000000002,-69.3 c-8.1,-0.4 -16.1,-2.1 -23.6,-5.2 c-8.5,-3.5 -16.4,-8.7 -22.9,-15.3 c-6.5,-6.5 -11.7,-14.4 -15.3,-22.9 c-3.1,-7.5 -4.9,-15.5 -5.2,-23.6 c-1.9,0 -3.9,0 -5.8,0 H266.6051727294922 v0 c-2.8,0 -5.7,0 -8.5,0 c-0.4,8.1 -2.1,16.1 -5.2,23.6 c-3.5,8.5 -8.7,16.4 -15.3,22.9 C231.0051727294922,59.89999847412109 223.20517272949218,65.0999984741211 214.6051727294922,68.5999984741211 c-7.5,3.1 -15.6,4.9 -23.6,5.2 L190.70517272949218,143.0999984741211 l-0.6000000000000004,72.5 c-0.3000000000000002,24.2 -0.5,48.4 -1,72.5 c-0.4,24.2 -0.8,48.4 -1.4,72.5 c-0.1,-2.9 -0.1,-5.8 -0.2,-8.6 v264.9 h477.9 c0,41.4 33.6,75 75,75 c41.4,0 75,-33.6 75,-75 h477.9 V358.1999984741211 C1292.7051727294922,334.8999984741211 1292.3051727294921,311.5999984741211 1291.9051727294923,288.1999984741211 zM779.4051727294922,616.9999984741211 c-1.1,3 -2.8,5.8 -5.2,8.2 c-0.3000000000000002,0.3000000000000002 -0.5,0.5 -0.8,0.7000000000000004 l0,0 l-33.1,33.2 l-33.1,-33.2 l0,0 c-0.3000000000000002,-0.2 -0.5,-0.5 -0.8,-0.7000000000000004 c-2.4,-2.4 -4.1,-5.2 -5.2,-8.2 c-2.9,-7.9 -1.2,-17.2 5.2,-23.6 c8.7,-8.8 22.9,-8.8 31.6,0 c0.3000000000000002,0.3000000000000002 0.5,0.5 0.7000000000000004,0.8 c0.5,0.6000000000000004 1.1,1.2 1.5,1.9 c0.5,-0.7000000000000004 1,-1.3 1.5,-1.9 c0.2,-0.3000000000000002 0.5,-0.5 0.7000000000000004,-0.8 c8.7,-8.8 22.9,-8.8 31.6,0 C780.6051727294922,599.7999984741211 782.3051727294921,609.0999984741211 779.4051727294922,616.9999984741211 z" id="svg_7"/>
	</g>
	<g id="svg_8">
		<path fill="#DEB58C" d="M774.2051727294922,593.399998474121 c-8.7,-8.8 -22.9,-8.8 -31.6,0 c-0.3000000000000002,0.3000000000000002 -0.5,0.5 -0.7000000000000004,0.8 c-0.5,0.6000000000000004 -1.1,1.2 -1.5,1.9 c-0.5,-0.7000000000000004 -1,-1.3 -1.5,-1.9 c-0.2,-0.3000000000000002 -0.5,-0.5 -0.7000000000000004,-0.8 c-8.7,-8.8 -22.9,-8.8 -31.6,0 c-6.4,6.4 -8.1,15.6 -5.2,23.6 c1.1,3 2.8,5.8 5.2,8.2 c0.3000000000000002,0.3000000000000002 0.5,0.5 0.8,0.7000000000000004 l0,0 l33.1,33.2 l33.1,-33.2 l0,0 c0.3000000000000002,-0.2 0.5,-0.5 0.8,-0.7000000000000004 c2.4,-2.4 4.1,-5.2 5.2,-8.2 C782.3051727294921,609.0999984741211 780.6051727294922,599.7999984741211 774.2051727294922,593.399998474121 zM769.7051727294922,620.5999984741211 c-0.3000000000000002,0.3000000000000002 -0.5,0.5 -0.8,0.7000000000000004 l0,0 L740.4051727294922,650.0999984741211 l-28.6,-28.7 l0,0 c-0.3000000000000002,-0.2 -0.5,-0.5 -0.8,-0.7000000000000004 c-1.1,-1.1 -2,-2.3 -2.7,-3.6 c-3.4,-6.1 -2.5,-13.9 2.7,-19 c6.2,-6.3 16.3,-6.3 22.6,0 c0.3000000000000002,0.3000000000000002 0.5,0.5 0.7000000000000004,0.8 l0,0 l6,6 l6,-6 l0,0 c0.2,-0.3000000000000002 0.5,-0.5 0.7000000000000004,-0.8 c6.2,-6.3 16.4,-6.3 22.6,0 c5.1,5.2 6,13 2.7,19 C771.7051727294922,618.2999984741211 770.8051727294921,619.4999984741211 769.7051727294922,620.5999984741211 z" id="svg_9"/>
		<path fill="#FFFFFF" d="M772.4051727294922,616.9999984741211 c-0.7000000000000004,1.3 -1.6,2.5 -2.7,3.6 c-0.3000000000000002,0.3000000000000002 -0.5,0.5 -0.8,0.7000000000000004 l0,0 L740.4051727294922,650.0999984741211 l-28.6,-28.7 l0,0 c-0.3000000000000002,-0.2 -0.5,-0.5 -0.8,-0.7000000000000004 c-1.1,-1.1 -2,-2.3 -2.7,-3.6 c-3.4,-6.1 -2.5,-13.9 2.7,-19 c6.2,-6.3 16.3,-6.3 22.6,0 c0.3000000000000002,0.3000000000000002 0.5,0.5 0.7000000000000004,0.8 l0,0 l6,6 l6,-6 l0,0 c0.2,-0.3000000000000002 0.5,-0.5 0.7000000000000004,-0.8 c6.2,-6.3 16.4,-6.3 22.6,0 C774.9051727294922,603.0999984741211 775.8051727294921,610.899998474121 772.4051727294922,616.9999984741211 z" id="svg_10"/>
	</g>
</g></g></svg>