<?xml version="1.0" encoding="utf-8"?>
<!-- Generator: Adobe Illustrator 17.1.0, SVG Export Plug-In . SVG Version: 6.00 Build 0)  -->
<!DOCTYPE svg PUBLIC "-//W3C//DTD SVG 1.1//EN" "http://www.w3.org/Graphics/SVG/1.1/DTD/svg11.dtd">
<svg version="1.1" id="Layer_1" xmlns="http://www.w3.org/2000/svg" xmlns:xlink="http://www.w3.org/1999/xlink" x="0px" y="0px"
	 viewBox="0 0 17 17" enable-background="new 0 0 17 17" xml:space="preserve">
<path fill="#BBA385" d="M12.1,5.1c-0.2-0.2-1.3-0.9-3.5-0.9c0,0-2.6-0.2-3.8,1c-0.7,0.7-0.9,1.7-1,3c0,1.2-0.2,3.6,2.1,4.3l0,1.9
	c0,0.1,0,0.2,0.1,0.2c0,0,0.1,0,0.2-0.1c0.4-0.4,1.5-1.8,1.5-1.8c1.6,0.1,2.8-0.2,2.9-0.3c0.3-0.1,2-0.3,2.3-2.6
	C13.3,7.5,12.9,5.8,12.1,5.1z M11.2,10.8L11.2,10.8c-0.1,0.2-0.3,0.4-0.4,0.6l0,0c-0.2,0.2-0.4,0.3-0.7,0.2v0
	c-0.5-0.1-1.6-0.7-2.3-1.3c-1.2-0.9-2-2.4-2.2-3.2h0c-0.1-0.3,0-0.5,0.2-0.7h0C5.9,6.1,6,6,6.2,5.9c0.1,0,0.2-0.1,0.2-0.1
	c0.1,0,0.2,0,0.3,0.1c0.2,0.2,0.5,0.6,0.7,1c0.1,0.2,0.1,0.5-0.1,0.6L7.2,7.8C7,7.9,7,8.1,7,8.1S7.4,9.6,8.9,10c0,0,0.2,0,0.3-0.1
	l0.2-0.3c0.1-0.1,0.4-0.2,0.6-0.1c0.3,0.2,0.7,0.5,1,0.7C11.2,10.4,11.3,10.6,11.2,10.8z M8.7,6.5c-0.1,0-0.1-0.1-0.1-0.2
	c0-0.1,0.1-0.1,0.2-0.1c0.6,0,1.1,0.3,1.5,0.6c0.4,0.4,0.5,0.9,0.5,1.4c0,0.1-0.1,0.1-0.1,0.1h0c-0.1,0-0.1-0.1-0.1-0.1
	c0-0.5-0.1-0.9-0.4-1.2C9.6,6.8,9.2,6.6,8.7,6.5z M9.9,8.1c0,0.1-0.1,0.1-0.1,0.2h0c-0.1,0-0.1-0.1-0.1-0.1c0-0.5-0.3-0.7-0.7-0.8
	c-0.1,0-0.1-0.1-0.1-0.2C8.8,7.1,8.8,7,8.9,7C9.5,7.1,9.9,7.4,9.9,8.1z M11.3,8.8c-0.1,0-0.1-0.1-0.1-0.1c0-0.9-0.3-1.6-0.8-2.1
	C9.8,6.1,9.2,5.8,8.4,5.8c-0.1,0-0.1-0.1-0.1-0.1c0-0.1,0.1-0.1,0.1-0.1c0.8,0,1.6,0.3,2.1,0.8c0.6,0.6,0.9,1.3,0.9,2.3
	C11.4,8.7,11.4,8.8,11.3,8.8z M12.1,5.1c-0.2-0.2-1.3-0.9-3.5-0.9c0,0-2.6-0.2-3.8,1c-0.7,0.7-0.9,1.7-1,3c0,1.2-0.2,3.6,2.1,4.3
	l0,1.9c0,0.1,0,0.2,0.1,0.2c0,0,0.1,0,0.2-0.1c0.4-0.4,1.5-1.8,1.5-1.8c1.6,0.1,2.8-0.2,2.9-0.3c0.3-0.1,2-0.3,2.3-2.6
	C13.3,7.5,12.9,5.8,12.1,5.1z M11.2,10.8L11.2,10.8c-0.1,0.2-0.3,0.4-0.4,0.6l0,0c-0.2,0.2-0.4,0.3-0.7,0.2v0
	c-0.5-0.1-1.6-0.7-2.3-1.3c-1.2-0.9-2-2.4-2.2-3.2h0c-0.1-0.3,0-0.5,0.2-0.7h0C5.9,6.1,6,6,6.2,5.9c0.1,0,0.2-0.1,0.2-0.1
	c0.1,0,0.2,0,0.3,0.1c0.2,0.2,0.5,0.6,0.7,1c0.1,0.2,0.1,0.5-0.1,0.6L7.2,7.8C7,7.9,7,8.1,7,8.1S7.4,9.6,8.9,10c0,0,0.2,0,0.3-0.1
	l0.2-0.3c0.1-0.1,0.4-0.2,0.6-0.1c0.3,0.2,0.7,0.5,1,0.7C11.2,10.4,11.3,10.6,11.2,10.8z M8.7,6.5c-0.1,0-0.1-0.1-0.1-0.2
	c0-0.1,0.1-0.1,0.2-0.1c0.6,0,1.1,0.3,1.5,0.6c0.4,0.4,0.5,0.9,0.5,1.4c0,0.1-0.1,0.1-0.1,0.1h0c-0.1,0-0.1-0.1-0.1-0.1
	c0-0.5-0.1-0.9-0.4-1.2C9.6,6.8,9.2,6.6,8.7,6.5z M9.9,8.1c0,0.1-0.1,0.1-0.1,0.2h0c-0.1,0-0.1-0.1-0.1-0.1c0-0.5-0.3-0.7-0.7-0.8
	c-0.1,0-0.1-0.1-0.1-0.2C8.8,7.1,8.8,7,8.9,7C9.5,7.1,9.9,7.4,9.9,8.1z M11.3,8.8c-0.1,0-0.1-0.1-0.1-0.1c0-0.9-0.3-1.6-0.8-2.1
	C9.8,6.1,9.2,5.8,8.4,5.8c-0.1,0-0.1-0.1-0.1-0.1c0-0.1,0.1-0.1,0.1-0.1c0.8,0,1.6,0.3,2.1,0.8c0.6,0.6,0.9,1.3,0.9,2.3
	C11.4,8.7,11.4,8.8,11.3,8.8z M12.1,5.1c-0.2-0.2-1.3-0.9-3.5-0.9c0,0-2.6-0.2-3.8,1c-0.7,0.7-0.9,1.7-1,3c0,1.2-0.2,3.6,2.1,4.3
	l0,1.9c0,0.1,0,0.2,0.1,0.2c0,0,0.1,0,0.2-0.1c0.4-0.4,1.5-1.8,1.5-1.8c1.6,0.1,2.8-0.2,2.9-0.3c0.3-0.1,2-0.3,2.3-2.6
	C13.3,7.5,12.9,5.8,12.1,5.1z M11.2,10.8L11.2,10.8c-0.1,0.2-0.3,0.4-0.4,0.6l0,0c-0.2,0.2-0.4,0.3-0.7,0.2v0
	c-0.5-0.1-1.6-0.7-2.3-1.3c-1.2-0.9-2-2.4-2.2-3.2h0c-0.1-0.3,0-0.5,0.2-0.7h0C5.9,6.1,6,6,6.2,5.9c0.1,0,0.2-0.1,0.2-0.1
	c0.1,0,0.2,0,0.3,0.1c0.2,0.2,0.5,0.6,0.7,1c0.1,0.2,0.1,0.5-0.1,0.6L7.2,7.8C7,7.9,7,8.1,7,8.1S7.4,9.6,8.9,10c0,0,0.2,0,0.3-0.1
	l0.2-0.3c0.1-0.1,0.4-0.2,0.6-0.1c0.3,0.2,0.7,0.5,1,0.7C11.2,10.4,11.3,10.6,11.2,10.8z M8.7,6.5c-0.1,0-0.1-0.1-0.1-0.2
	c0-0.1,0.1-0.1,0.2-0.1c0.6,0,1.1,0.3,1.5,0.6c0.4,0.4,0.5,0.9,0.5,1.4c0,0.1-0.1,0.1-0.1,0.1h0c-0.1,0-0.1-0.1-0.1-0.1
	c0-0.5-0.1-0.9-0.4-1.2C9.6,6.8,9.2,6.6,8.7,6.5z M9.9,8.1c0,0.1-0.1,0.1-0.1,0.2h0c-0.1,0-0.1-0.1-0.1-0.1c0-0.5-0.3-0.7-0.7-0.8
	c-0.1,0-0.1-0.1-0.1-0.2C8.8,7.1,8.8,7,8.9,7C9.5,7.1,9.9,7.4,9.9,8.1z M11.3,8.8c-0.1,0-0.1-0.1-0.1-0.1c0-0.9-0.3-1.6-0.8-2.1
	C9.8,6.1,9.2,5.8,8.4,5.8c-0.1,0-0.1-0.1-0.1-0.1c0-0.1,0.1-0.1,0.1-0.1c0.8,0,1.6,0.3,2.1,0.8c0.6,0.6,0.9,1.3,0.9,2.3
	C11.4,8.7,11.4,8.8,11.3,8.8z M12.1,5.1c-0.2-0.2-1.3-0.9-3.5-0.9c0,0-2.6-0.2-3.8,1c-0.7,0.7-0.9,1.7-1,3c0,1.2-0.2,3.6,2.1,4.3
	l0,1.9c0,0.1,0,0.2,0.1,0.2c0,0,0.1,0,0.2-0.1c0.4-0.4,1.5-1.8,1.5-1.8c1.6,0.1,2.8-0.2,2.9-0.3c0.3-0.1,2-0.3,2.3-2.6
	C13.3,7.5,12.9,5.8,12.1,5.1z M11.2,10.8L11.2,10.8c-0.1,0.2-0.3,0.4-0.4,0.6l0,0c-0.2,0.2-0.4,0.3-0.7,0.2v0
	c-0.5-0.1-1.6-0.7-2.3-1.3c-1.2-0.9-2-2.4-2.2-3.2h0c-0.1-0.3,0-0.5,0.2-0.7h0C5.9,6.1,6,6,6.2,5.9c0.1,0,0.2-0.1,0.2-0.1
	c0.1,0,0.2,0,0.3,0.1c0.2,0.2,0.5,0.6,0.7,1c0.1,0.2,0.1,0.5-0.1,0.6L7.2,7.8C7,7.9,7,8.1,7,8.1S7.4,9.6,8.9,10c0,0,0.2,0,0.3-0.1
	l0.2-0.3c0.1-0.1,0.4-0.2,0.6-0.1c0.3,0.2,0.7,0.5,1,0.7C11.2,10.4,11.3,10.6,11.2,10.8z M8.7,6.5c-0.1,0-0.1-0.1-0.1-0.2
	c0-0.1,0.1-0.1,0.2-0.1c0.6,0,1.1,0.3,1.5,0.6c0.4,0.4,0.5,0.9,0.5,1.4c0,0.1-0.1,0.1-0.1,0.1h0c-0.1,0-0.1-0.1-0.1-0.1
	c0-0.5-0.1-0.9-0.4-1.2C9.6,6.8,9.2,6.6,8.7,6.5z M9.9,8.1c0,0.1-0.1,0.1-0.1,0.2h0c-0.1,0-0.1-0.1-0.1-0.1c0-0.5-0.3-0.7-0.7-0.8
	c-0.1,0-0.1-0.1-0.1-0.2C8.8,7.1,8.8,7,8.9,7C9.5,7.1,9.9,7.4,9.9,8.1z M11.3,8.8c-0.1,0-0.1-0.1-0.1-0.1c0-0.9-0.3-1.6-0.8-2.1
	C9.8,6.1,9.2,5.8,8.4,5.8c-0.1,0-0.1-0.1-0.1-0.1c0-0.1,0.1-0.1,0.1-0.1c0.8,0,1.6,0.3,2.1,0.8c0.6,0.6,0.9,1.3,0.9,2.3
	C11.4,8.7,11.4,8.8,11.3,8.8z M8.7,4.3c0,0-2.6-0.2-3.8,1c-0.7,0.7-0.9,1.7-1,3c0,1.2-0.2,3.6,2.1,4.3l0,1.9c0,0.1,0,0.2,0.1,0.2
	c0,0,0.1,0,0.2-0.1c0.4-0.4,1.5-1.8,1.5-1.8c1.6,0.1,2.8-0.2,2.9-0.3c0.3-0.1,2-0.3,2.3-2.6c0.3-2.4-0.1-4-0.9-4.7
	C11.9,4.9,10.8,4.3,8.7,4.3z M11.2,10.8L11.2,10.8c-0.1,0.2-0.3,0.4-0.4,0.6l0,0c-0.2,0.2-0.4,0.3-0.7,0.2v0
	c-0.5-0.1-1.6-0.7-2.3-1.3c-1.2-0.9-2-2.4-2.2-3.2h0c-0.1-0.3,0-0.5,0.2-0.7h0C5.9,6.1,6,6,6.2,5.9c0.1,0,0.2-0.1,0.2-0.1
	c0.1,0,0.2,0,0.3,0.1c0.2,0.2,0.5,0.6,0.7,1c0.1,0.2,0.1,0.5-0.1,0.6L7.2,7.8C7,7.9,7,8.1,7,8.1S7.4,9.6,8.9,10c0,0,0.2,0,0.3-0.1
	l0.2-0.3c0.1-0.1,0.4-0.2,0.6-0.1c0.3,0.2,0.7,0.5,1,0.7C11.2,10.4,11.3,10.6,11.2,10.8z M8.7,6.5c-0.1,0-0.1-0.1-0.1-0.2
	c0-0.1,0.1-0.1,0.2-0.1c0.6,0,1.1,0.3,1.5,0.6c0.4,0.4,0.5,0.9,0.5,1.4c0,0.1-0.1,0.1-0.1,0.1h0c-0.1,0-0.1-0.1-0.1-0.1
	c0-0.5-0.1-0.9-0.4-1.2C9.6,6.8,9.2,6.6,8.7,6.5z M9.9,8.1c0,0.1-0.1,0.1-0.1,0.2h0c-0.1,0-0.1-0.1-0.1-0.1c0-0.5-0.3-0.7-0.7-0.8
	c-0.1,0-0.1-0.1-0.1-0.2C8.8,7.1,8.8,7,8.9,7C9.5,7.1,9.9,7.4,9.9,8.1z M11.3,8.8c-0.1,0-0.1-0.1-0.1-0.1c0-0.9-0.3-1.6-0.8-2.1
	C9.8,6.1,9.2,5.8,8.4,5.8c-0.1,0-0.1-0.1-0.1-0.1c0-0.1,0.1-0.1,0.1-0.1c0.8,0,1.6,0.3,2.1,0.8c0.6,0.6,0.9,1.3,0.9,2.3
	C11.4,8.7,11.4,8.8,11.3,8.8z M13.3,0.3H3.7c-1.9,0-3.4,1.5-3.4,3.4v9.5c0,1.9,1.5,3.4,3.4,3.4h9.5c1.9,0,3.4-1.5,3.4-3.4V3.7
	C16.7,1.9,15.1,0.3,13.3,0.3z M13.8,10.1c-0.3,2.8-2.4,3.1-2.8,3.2c-0.2,0.1-1.6,0.4-3.4,0.3c-0.2,0.2-0.5,0.5-0.7,0.8
	C6.6,14.7,6.4,15,6,14.9c-0.3-0.1-0.3-0.6-0.3-0.6v-1.2C3,12.4,3,9.6,3.1,8.1c0-1.5,0.3-2.7,1.1-3.5c1.5-1.4,4.5-1.2,4.5-1.2
	c2.6,0,3.7,0.9,4,1.1C13.7,5.4,14.2,7.2,13.8,10.1z M12.1,5.1c-0.2-0.2-1.3-0.9-3.5-0.9c0,0-2.6-0.2-3.8,1c-0.7,0.7-0.9,1.7-1,3
	c0,1.2-0.2,3.6,2.1,4.3l0,1.9c0,0.1,0,0.2,0.1,0.2c0,0,0.1,0,0.2-0.1c0.4-0.4,1.5-1.8,1.5-1.8c1.6,0.1,2.8-0.2,2.9-0.3
	c0.3-0.1,2-0.3,2.3-2.6C13.3,7.5,12.9,5.8,12.1,5.1z M11.2,10.8L11.2,10.8c-0.1,0.2-0.3,0.4-0.4,0.6l0,0c-0.2,0.2-0.4,0.3-0.7,0.2v0
	c-0.5-0.1-1.6-0.7-2.3-1.3c-1.2-0.9-2-2.4-2.2-3.2h0c-0.1-0.3,0-0.5,0.2-0.7h0C5.9,6.1,6,6,6.2,5.9c0.1,0,0.2-0.1,0.2-0.1
	c0.1,0,0.2,0,0.3,0.1c0.2,0.2,0.5,0.6,0.7,1c0.1,0.2,0.1,0.5-0.1,0.6L7.2,7.8C7,7.9,7,8.1,7,8.1S7.4,9.6,8.9,10c0,0,0.2,0,0.3-0.1
	l0.2-0.3c0.1-0.1,0.4-0.2,0.6-0.1c0.3,0.2,0.7,0.5,1,0.7C11.2,10.4,11.3,10.6,11.2,10.8z M8.7,6.5c-0.1,0-0.1-0.1-0.1-0.2
	c0-0.1,0.1-0.1,0.2-0.1c0.6,0,1.1,0.3,1.5,0.6c0.4,0.4,0.5,0.9,0.5,1.4c0,0.1-0.1,0.1-0.1,0.1h0c-0.1,0-0.1-0.1-0.1-0.1
	c0-0.5-0.1-0.9-0.4-1.2C9.6,6.8,9.2,6.6,8.7,6.5z M9.9,8.1c0,0.1-0.1,0.1-0.1,0.2h0c-0.1,0-0.1-0.1-0.1-0.1c0-0.5-0.3-0.7-0.7-0.8
	c-0.1,0-0.1-0.1-0.1-0.2C8.8,7.1,8.8,7,8.9,7C9.5,7.1,9.9,7.4,9.9,8.1z M11.3,8.8c-0.1,0-0.1-0.1-0.1-0.1c0-0.9-0.3-1.6-0.8-2.1
	C9.8,6.1,9.2,5.8,8.4,5.8c-0.1,0-0.1-0.1-0.1-0.1c0-0.1,0.1-0.1,0.1-0.1c0.8,0,1.6,0.3,2.1,0.8c0.6,0.6,0.9,1.3,0.9,2.3
	C11.4,8.7,11.4,8.8,11.3,8.8z M12.1,5.1c-0.2-0.2-1.3-0.9-3.5-0.9c0,0-2.6-0.2-3.8,1c-0.7,0.7-0.9,1.7-1,3c0,1.2-0.2,3.6,2.1,4.3
	l0,1.9c0,0.1,0,0.2,0.1,0.2c0,0,0.1,0,0.2-0.1c0.4-0.4,1.5-1.8,1.5-1.8c1.6,0.1,2.8-0.2,2.9-0.3c0.3-0.1,2-0.3,2.3-2.6
	C13.3,7.5,12.9,5.8,12.1,5.1z M11.2,10.8L11.2,10.8c-0.1,0.2-0.3,0.4-0.4,0.6l0,0c-0.2,0.2-0.4,0.3-0.7,0.2v0
	c-0.5-0.1-1.6-0.7-2.3-1.3c-1.2-0.9-2-2.4-2.2-3.2h0c-0.1-0.3,0-0.5,0.2-0.7h0C5.9,6.1,6,6,6.2,5.9c0.1,0,0.2-0.1,0.2-0.1
	c0.1,0,0.2,0,0.3,0.1c0.2,0.2,0.5,0.6,0.7,1c0.1,0.2,0.1,0.5-0.1,0.6L7.2,7.8C7,7.9,7,8.1,7,8.1S7.4,9.6,8.9,10c0,0,0.2,0,0.3-0.1
	l0.2-0.3c0.1-0.1,0.4-0.2,0.6-0.1c0.3,0.2,0.7,0.5,1,0.7C11.2,10.4,11.3,10.6,11.2,10.8z M8.7,6.5c-0.1,0-0.1-0.1-0.1-0.2
	c0-0.1,0.1-0.1,0.2-0.1c0.6,0,1.1,0.3,1.5,0.6c0.4,0.4,0.5,0.9,0.5,1.4c0,0.1-0.1,0.1-0.1,0.1h0c-0.1,0-0.1-0.1-0.1-0.1
	c0-0.5-0.1-0.9-0.4-1.2C9.6,6.8,9.2,6.6,8.7,6.5z M9.9,8.1c0,0.1-0.1,0.1-0.1,0.2h0c-0.1,0-0.1-0.1-0.1-0.1c0-0.5-0.3-0.7-0.7-0.8
	c-0.1,0-0.1-0.1-0.1-0.2C8.8,7.1,8.8,7,8.9,7C9.5,7.1,9.9,7.4,9.9,8.1z M11.3,8.8c-0.1,0-0.1-0.1-0.1-0.1c0-0.9-0.3-1.6-0.8-2.1
	C9.8,6.1,9.2,5.8,8.4,5.8c-0.1,0-0.1-0.1-0.1-0.1c0-0.1,0.1-0.1,0.1-0.1c0.8,0,1.6,0.3,2.1,0.8c0.6,0.6,0.9,1.3,0.9,2.3
	C11.4,8.7,11.4,8.8,11.3,8.8z"/>
</svg>
