<?xml version="1.0" encoding="utf-8"?>
<!-- Generator: Adobe Illustrator 17.1.0, SVG Export Plug-In . SVG Version: 6.00 Build 0)  -->
<!DOCTYPE svg PUBLIC "-//W3C//DTD SVG 1.1//EN" "http://www.w3.org/Graphics/SVG/1.1/DTD/svg11.dtd">
<svg version="1.1" id="Layer_1" xmlns="http://www.w3.org/2000/svg" xmlns:xlink="http://www.w3.org/1999/xlink" x="0px" y="0px"
	 viewBox="0 0 17 17" enable-background="new 0 0 17 17" xml:space="preserve">
<path fill="#BBA385" d="M8.5,4C6.1,4,4,6,4,8.5c0,1,0.3,1.8,0.8,2.6l-0.5,1.7l1.7-0.4c0.8,0.5,1.5,0.7,2.4,0.7c2.5,0,4.5-2,4.5-4.5
	C13,6,11,4,8.5,4z M11.2,10.4C11,10.7,10.5,11,10.3,11c-0.2,0-0.5,0-0.8-0.1c-0.2-0.1-0.4-0.1-0.8-0.3c-1.4-0.6-2.2-1.9-2.3-2
	S5.8,7.9,5.8,7.3c0-0.7,0.3-1,0.5-1.1C6.4,6,6.5,6,6.6,6l0.3,0c0.1,0,0.2,0,0.3,0.2c0.1,0.3,0.4,0.9,0.4,1c0,0.1,0.1,0.1,0,0.2
	c0,0.1-0.1,0.1-0.1,0.2L7.3,7.9C7.2,8,7.1,8,7.2,8.2C7.3,8.3,7.6,8.7,8,9.1C8.5,9.6,8.9,9.7,9,9.8s0.2,0.1,0.3,0
	c0.1-0.1,0.3-0.4,0.4-0.5c0.1-0.1,0.2-0.1,0.3-0.1c0.1,0,0.8,0.4,0.9,0.4c0.1,0.1,0.2,0.1,0.3,0.2C11.3,9.8,11.3,10.1,11.2,10.4z
	 M13.3,0.3H3.7c-1.9,0-3.4,1.5-3.4,3.4v9.5c0,1.9,1.5,3.4,3.4,3.4h9.5c1.9,0,3.4-1.5,3.4-3.4V3.7C16.7,1.9,15.1,0.3,13.3,0.3z
	 M8.5,13.8c-0.9,0-1.8-0.2-2.6-0.7l-2.9,0.8l0.8-2.8c-0.5-0.8-0.7-1.7-0.7-2.7c0-3,2.4-5.4,5.4-5.4c1.4,0,2.8,0.6,3.8,1.6
	s1.6,2.4,1.6,3.8C13.9,11.4,11.5,13.8,8.5,13.8z"/>
</svg>
